M48
; DRILL file {KiCad 9.0.6} date 2025-11-20T09:41:38+0100
; FORMAT={-:-/ absolute / inch / decimal}
; #@! TF.CreationDate,2025-11-20T09:41:38+01:00
; #@! TF.GenerationSoftware,Kicad,Pcbnew,9.0.6
; #@! TF.FileFunction,Plated,1,2,PTH
FMAT,2
INCH
; #@! TA.AperFunction,Plated,PTH,ViaDrill
T1C0.0118
; #@! TA.AperFunction,Plated,PTH,ViaDrill
T2C0.0157
; #@! TA.AperFunction,Plated,PTH,ViaDrill
T3C0.0197
; #@! TA.AperFunction,Plated,PTH,ComponentDrill
T4C0.0354
; #@! TA.AperFunction,Plated,PTH,ComponentDrill
T5C0.0394
; #@! TA.AperFunction,Plated,PTH,ComponentDrill
T6C0.0433
; #@! TA.AperFunction,Plated,PTH,ComponentDrill
T7C0.0480
; #@! TA.AperFunction,Plated,PTH,ComponentDrill
T8C0.0559
; #@! TA.AperFunction,Plated,PTH,ComponentDrill
T9C0.0563
%
G90
G05
T1
X3.8051Y-3.2394
X3.8248Y-3.2563
X3.8287Y-4.6654
X3.8514Y-3.5423
X3.8583Y-5.0591
X3.8583Y-5.1467
X3.8681Y-2.8937
X3.8681Y-2.9429
X3.8878Y-4.7343
X3.8921Y-4.835
X3.8976Y-2.1555
X3.9272Y-2.1555
X3.9469Y-2.0669
X3.9469Y-3.0807
X3.9508Y-3.1289
X3.9567Y-2.1555
X3.9764Y-2.8839
X4.0256Y-3.8976
X4.0256Y-4.0945
X4.0276Y-5.0965
X4.0339Y-5.1528
X4.0354Y-5.2165
X4.0551Y-2.0276
X4.0559Y-3.824
X4.0563Y-3.7976
X4.0846Y-3.937
X4.0846Y-4.8031
X4.0925Y-4.0433
X4.1043Y-4.9705
X4.1339Y-2.1654
X4.1437Y-2.2736
X4.1437Y-2.6476
X4.1732Y-4.3701
X4.1831Y-4.2126
X4.185Y-3.3356
X4.2028Y-4.3996
X4.2154Y-3.6173
X4.2453Y-3.6185
X4.252Y-3.0315
X4.2648Y-3.8465
X4.2815Y-1.9882
X4.2815Y-2.0177
X4.2815Y-2.0472
X4.2815Y-4.2421
X4.3012Y-5.1181
X4.3209Y-3.0315
X4.3278Y-3.3957
X4.3312Y-4.1043
X4.3312Y-4.2618
X4.3327Y-2.124
X4.3331Y-3.702
X4.3602Y-2.624
X4.3602Y-2.7165
X4.3602Y-3.702
X4.3898Y-3.5039
X4.3898Y-3.9862
X4.3898Y-4.0157
X4.3898Y-4.0453
X4.3898Y-4.3996
X4.3898Y-4.4488
X4.4026Y-3.9163
X4.4193Y-2.8346
X4.4193Y-2.874
X4.4193Y-3.2382
X4.439Y-2.1044
X4.4488Y-3.4587
X4.4783Y-4.1929
X4.4783Y-4.2224
X4.4783Y-4.252
X4.4882Y-1.8701
X4.4882Y-3.435
X4.498Y-2.313
X4.5079Y-2.0079
X4.5276Y-4.124
X4.5295Y-4.061
X4.5374Y-3.0315
X4.5374Y-3.189
X4.5571Y-2.4409
X4.5669Y-4.4748
X4.5768Y-2.6476
X4.5768Y-3.1201
X4.6063Y-2.5197
X4.6063Y-4.9311
X4.6319Y-2.6259
X4.6358Y-2.4016
X4.6457Y-2.3622
X4.6457Y-4.2224
X4.6752Y-2.628
X4.6949Y-2.0472
X4.6949Y-2.9626
X4.6949Y-3.0118
X4.6949Y-4.626
X4.7244Y-2.8642
X4.7402Y-3.6177
X4.7441Y-3.1693
X4.7539Y-5.0575
X4.7831Y-3.7528
X4.7835Y-3.7799
X4.7858Y-4.1563
X4.8031Y-2.4606
X4.8327Y-1.9488
X4.8327Y-2.8051
X4.8327Y-2.8839
X4.8425Y-5.4528
X4.8642Y-3.6801
X4.873Y-3.8268
X4.8819Y-3.0315
X4.8819Y-3.2185
X4.9311Y-2.5394
X4.9508Y-2.4409
X4.9606Y-3.2677
X4.9705Y-4.2028
X4.9705Y-4.2815
X4.9705Y-4.3209
X4.9705Y-4.3602
X4.9754Y-2.3474
X4.9902Y-2.6673
X5.0Y-1.8701
X5.0Y-2.8937
X5.0098Y-2.3917
X5.0197Y-2.874
X5.0295Y-2.5886
X5.0374Y-4.9823
X5.0512Y-3.0591
X5.0689Y-4.6654
X5.0835Y-3.6886
X5.0935Y-5.2313
X5.1024Y-3.9394
X5.1083Y-4.6654
X5.1154Y-3.6886
X5.1236Y-5.0197
X5.127Y-4.9705
X5.1476Y-2.5394
X5.1476Y-4.252
X5.1575Y-2.126
X5.187Y-4.1732
X5.1909Y-4.9705
X5.1929Y-2.7244
X5.2067Y-1.7618
X5.2264Y-3.1201
X5.2362Y-2.5
X5.2461Y-2.8937
X5.2461Y-4.1732
X5.248Y-3.0787
X5.2559Y-2.9331
X5.2567Y-3.9398
X5.2756Y-4.439
X5.2854Y-2.8346
X5.3051Y-1.9488
X5.3102Y-2.8102
X5.315Y-4.626
X5.3445Y-2.3819
X5.374Y-4.439
X5.3934Y-3.0805
X5.4035Y-2.7559
X5.4331Y-3.563
X5.4626Y-3.0512
X5.4695Y-2.7057
X5.4783Y-2.815
X5.5512Y-2.126
X5.5669Y-3.5531
X6.3441Y-2.0571
X6.4772Y-1.9067
X6.526Y-2.698
X6.5945Y-2.5354
X6.6402Y-2.5445
X6.8425Y-1.5453
X6.9917Y-2.7661
X7.0161Y-2.6409
X7.0303Y-2.7638
X7.1102Y-2.4957
X7.2232Y-2.8406
X7.2449Y-2.7449
X7.2902Y-2.4756
X7.3752Y-3.7634
X7.3752Y-3.7933
T2
X3.94Y-1.8091
X4.2022Y-4.3305
X4.4882Y-4.4866
X4.9213Y-4.7933
X5.0315Y-1.5295
X5.1575Y-3.5531
X5.3051Y-4.3012
X6.9646Y-3.4098
T3
X6.8319Y-2.5012
X6.837Y-2.1973
X6.8488Y-2.1429
X6.9531Y-2.8114
X6.9535Y-2.5339
X7.1016Y-2.75
X7.3921Y-2.8283
X7.4154Y-2.6205
X7.4756Y-2.6484
T4
X6.6579Y-2.3008
X6.6583Y-2.124
X6.7579Y-2.3008
X6.7583Y-2.124
T5
X3.752Y-4.8031
X3.752Y-4.9031
X3.752Y-5.0031
X3.752Y-5.1031
X4.1486Y-1.6386
X4.2486Y-1.6386
X4.3486Y-1.6386
X4.4486Y-1.6386
X4.5486Y-1.6386
X4.6486Y-1.6386
X4.7486Y-1.6386
X4.8486Y-1.6386
X4.9486Y-1.6386
X4.974Y-5.461
X4.974Y-5.561
X5.0486Y-1.6386
X5.074Y-5.461
X5.074Y-5.561
X5.1486Y-1.6386
X5.174Y-5.461
X5.174Y-5.561
X5.2486Y-1.6386
X5.274Y-5.461
X5.274Y-5.561
X5.374Y-5.461
X5.374Y-5.561
X5.5433Y-4.8031
X5.5433Y-4.9031
X5.5433Y-5.0031
X5.5433Y-5.1031
X5.75Y-4.8138
X5.75Y-4.9138
X5.75Y-5.0138
X5.75Y-5.1138
X5.9035Y-3.8681
X5.9055Y-1.8209
X5.9055Y-2.5413
X6.002Y-3.8681
X6.0039Y-1.8209
X6.0039Y-2.5413
X6.1004Y-3.8681
X6.1024Y-1.8209
X6.1024Y-2.5413
X6.1457Y-1.6492
X6.2008Y-1.8209
X6.2008Y-2.5413
X6.2457Y-1.6492
X6.2992Y-1.8209
X6.2992Y-2.5413
X6.3457Y-1.6492
X6.4252Y-3.8681
X6.4457Y-1.6492
X6.5236Y-3.8681
X6.5457Y-1.6492
X6.5724Y-3.1189
X6.622Y-3.8681
X6.6457Y-1.6492
X6.6709Y-3.1189
X6.7457Y-1.6492
X6.7693Y-3.1189
X6.8457Y-1.6492
X6.9457Y-1.6492
X7.0457Y-1.6492
X7.1252Y-2.3803
X7.1457Y-1.6492
X7.2236Y-2.3803
X7.2244Y-3.3157
X7.2244Y-3.8681
X7.2457Y-1.6492
X7.322Y-2.3803
X7.3228Y-3.3157
X7.3228Y-3.8681
X7.4213Y-3.3157
X7.4213Y-3.8681
X7.5413Y-4.8138
X7.5413Y-4.9138
X7.5413Y-5.0138
X7.5413Y-5.1138
T7
X5.9764Y-4.4587
X5.9764Y-5.1083
X5.9764Y-5.689
X6.065Y-3.2689
X6.4259Y-4.4587
X6.4259Y-5.1083
X6.4259Y-5.689
X6.8753Y-4.4587
X6.8753Y-5.1083
X6.8753Y-5.689
X7.3248Y-4.4587
X7.3248Y-5.1083
X7.3248Y-5.689
T8
X5.9764Y-4.3366
X5.9764Y-4.9862
X5.9764Y-5.5669
X6.065Y-3.1469
X6.4259Y-4.3366
X6.4259Y-4.9862
X6.4259Y-5.5669
X6.8753Y-4.3366
X6.8753Y-4.9862
X6.8753Y-5.5669
X7.3248Y-4.3366
X7.3248Y-4.9862
X7.3248Y-5.5669
T9
X5.9764Y-4.0098
X5.9764Y-4.6594
X5.9764Y-5.2402
X6.065Y-2.8201
X6.4259Y-4.0098
X6.4259Y-4.6594
X6.4259Y-5.2402
X6.8753Y-4.0098
X6.8753Y-4.6594
X6.8753Y-5.2402
X7.3248Y-4.0098
X7.3248Y-4.6594
X7.3248Y-5.2402
T6
G00X5.813Y-3.5965
M15
G01X5.813Y-3.5492
M16
G05
G00X6.1909Y-3.5965
M15
G01X6.1909Y-3.5492
M16
G05
G00X6.3346Y-3.5965
M15
G01X6.3346Y-3.5492
M16
G05
G00X6.4819Y-2.8472
M15
G01X6.4819Y-2.8
M16
G05
G00X6.7126Y-3.5965
M15
G01X6.7126Y-3.5492
M16
G05
G00X6.8598Y-2.8472
M15
G01X6.8598Y-2.8
M16
G05
G00X7.0346Y-2.1087
M15
G01X7.0346Y-2.0614
M16
G05
G00X7.1339Y-3.0441
M15
G01X7.1339Y-2.9969
M16
G05
G00X7.1339Y-3.5965
M15
G01X7.1339Y-3.5492
M16
G05
G00X7.4126Y-2.1087
M15
G01X7.4126Y-2.0614
M16
G05
G00X7.5118Y-3.0441
M15
G01X7.5118Y-2.9969
M16
G05
G00X7.5118Y-3.5965
M15
G01X7.5118Y-3.5492
M16
G05
M30
