%TF.GenerationSoftware,KiCad,Pcbnew,9.0.6*%
%TF.CreationDate,2025-11-20T09:41:43+01:00*%
%TF.ProjectId,Th-555-biondo,54682d35-3535-42d6-9269-6f6e646f2e6b,rev?*%
%TF.SameCoordinates,Original*%
%TF.FileFunction,Soldermask,Bot*%
%TF.FilePolarity,Negative*%
%FSLAX46Y46*%
G04 Gerber Fmt 4.6, Leading zero omitted, Abs format (unit mm)*
G04 Created by KiCad (PCBNEW 9.0.6) date 2025-11-20 09:41:43*
%MOMM*%
%LPD*%
G01*
G04 APERTURE LIST*
G04 Aperture macros list*
%AMRoundRect*
0 Rectangle with rounded corners*
0 $1 Rounding radius*
0 $2 $3 $4 $5 $6 $7 $8 $9 X,Y pos of 4 corners*
0 Add a 4 corners polygon primitive as box body*
4,1,4,$2,$3,$4,$5,$6,$7,$8,$9,$2,$3,0*
0 Add four circle primitives for the rounded corners*
1,1,$1+$1,$2,$3*
1,1,$1+$1,$4,$5*
1,1,$1+$1,$6,$7*
1,1,$1+$1,$8,$9*
0 Add four rect primitives between the rounded corners*
20,1,$1+$1,$2,$3,$4,$5,0*
20,1,$1+$1,$4,$5,$6,$7,0*
20,1,$1+$1,$6,$7,$8,$9,0*
20,1,$1+$1,$8,$9,$2,$3,0*%
G04 Aperture macros list end*
%ADD10R,1.930000X1.830000*%
%ADD11C,2.130000*%
%ADD12O,2.720000X3.786000*%
%ADD13R,1.800000X1.800000*%
%ADD14C,1.800000*%
%ADD15R,1.700000X1.700000*%
%ADD16C,1.700000*%
%ADD17C,2.700000*%
%ADD18C,1.750000*%
%ADD19R,1.750000X1.524000*%
%ADD20RoundRect,0.237500X0.300000X0.237500X-0.300000X0.237500X-0.300000X-0.237500X0.300000X-0.237500X0*%
%ADD21C,1.000000*%
%ADD22RoundRect,0.237500X-0.237500X0.250000X-0.237500X-0.250000X0.237500X-0.250000X0.237500X0.250000X0*%
%ADD23RoundRect,0.237500X-0.250000X-0.237500X0.250000X-0.237500X0.250000X0.237500X-0.250000X0.237500X0*%
%ADD24RoundRect,0.237500X0.250000X0.237500X-0.250000X0.237500X-0.250000X-0.237500X0.250000X-0.237500X0*%
%ADD25RoundRect,0.237500X0.237500X-0.250000X0.237500X0.250000X-0.237500X0.250000X-0.237500X-0.250000X0*%
%ADD26RoundRect,0.250000X0.400000X0.700000X-0.400000X0.700000X-0.400000X-0.700000X0.400000X-0.700000X0*%
%ADD27RoundRect,0.250000X0.750000X0.700000X-0.750000X0.700000X-0.750000X-0.700000X0.750000X-0.700000X0*%
%ADD28RoundRect,0.250000X1.050000X0.550000X-1.050000X0.550000X-1.050000X-0.550000X1.050000X-0.550000X0*%
%ADD29RoundRect,0.225000X0.225000X0.250000X-0.225000X0.250000X-0.225000X-0.250000X0.225000X-0.250000X0*%
%ADD30RoundRect,0.237500X0.237500X-0.300000X0.237500X0.300000X-0.237500X0.300000X-0.237500X-0.300000X0*%
%ADD31RoundRect,0.150000X0.825000X0.150000X-0.825000X0.150000X-0.825000X-0.150000X0.825000X-0.150000X0*%
%ADD32RoundRect,0.237500X-0.237500X0.300000X-0.237500X-0.300000X0.237500X-0.300000X0.237500X0.300000X0*%
%ADD33RoundRect,0.250000X0.600000X-0.600000X0.600000X0.600000X-0.600000X0.600000X-0.600000X-0.600000X0*%
%ADD34RoundRect,0.237500X-0.300000X-0.237500X0.300000X-0.237500X0.300000X0.237500X-0.300000X0.237500X0*%
%ADD35RoundRect,0.150000X-0.587500X-0.150000X0.587500X-0.150000X0.587500X0.150000X-0.587500X0.150000X0*%
%ADD36RoundRect,0.250000X-0.700000X0.400000X-0.700000X-0.400000X0.700000X-0.400000X0.700000X0.400000X0*%
%ADD37RoundRect,0.250000X-0.700000X0.750000X-0.700000X-0.750000X0.700000X-0.750000X0.700000X0.750000X0*%
%ADD38RoundRect,0.225000X0.250000X-0.225000X0.250000X0.225000X-0.250000X0.225000X-0.250000X-0.225000X0*%
%ADD39RoundRect,0.150000X-0.150000X0.587500X-0.150000X-0.587500X0.150000X-0.587500X0.150000X0.587500X0*%
%ADD40RoundRect,0.250000X-1.050000X-0.550000X1.050000X-0.550000X1.050000X0.550000X-1.050000X0.550000X0*%
%ADD41RoundRect,0.225000X0.375000X-0.225000X0.375000X0.225000X-0.375000X0.225000X-0.375000X-0.225000X0*%
%ADD42RoundRect,0.150000X-0.150000X0.512500X-0.150000X-0.512500X0.150000X-0.512500X0.150000X0.512500X0*%
%ADD43RoundRect,0.250000X0.700000X-0.400000X0.700000X0.400000X-0.700000X0.400000X-0.700000X-0.400000X0*%
%ADD44RoundRect,0.250000X0.700000X-0.750000X0.700000X0.750000X-0.700000X0.750000X-0.700000X-0.750000X0*%
%ADD45R,0.650000X0.400000*%
%ADD46RoundRect,0.225000X-0.375000X0.225000X-0.375000X-0.225000X0.375000X-0.225000X0.375000X0.225000X0*%
%ADD47RoundRect,0.150000X0.150000X-0.587500X0.150000X0.587500X-0.150000X0.587500X-0.150000X-0.587500X0*%
%ADD48RoundRect,0.150000X-0.825000X-0.150000X0.825000X-0.150000X0.825000X0.150000X-0.825000X0.150000X0*%
G04 APERTURE END LIST*
D10*
%TO.C,J6*%
X186050000Y-113250000D03*
D11*
X186050000Y-101850000D03*
X186050000Y-110150000D03*
%TD*%
D10*
%TO.C,J3*%
X163216666Y-113250000D03*
D11*
X163216666Y-101850000D03*
X163216666Y-110150000D03*
%TD*%
D12*
%TO.C,RV2*%
X181200000Y-76720000D03*
X190800000Y-76720000D03*
D13*
X183500000Y-84220000D03*
D14*
X186000000Y-84220000D03*
X188500000Y-84220000D03*
%TD*%
D10*
%TO.C,J2*%
X154050000Y-83030000D03*
D11*
X154050000Y-71630000D03*
X154050000Y-79930000D03*
%TD*%
D12*
%TO.C,RV6*%
X160900000Y-90750000D03*
X170500000Y-90750000D03*
D13*
X163200000Y-98250000D03*
D14*
X165700000Y-98250000D03*
X168200000Y-98250000D03*
%TD*%
D10*
%TO.C,J10*%
X163216666Y-129750000D03*
D11*
X163216666Y-118350000D03*
X163216666Y-126650000D03*
%TD*%
D10*
%TO.C,J12*%
X174633332Y-129750000D03*
D11*
X174633332Y-118350000D03*
X174633332Y-126650000D03*
%TD*%
D10*
%TO.C,J8*%
X151800000Y-129750000D03*
D11*
X151800000Y-118350000D03*
X151800000Y-126650000D03*
%TD*%
D10*
%TO.C,J11*%
X186050000Y-129750000D03*
D11*
X186050000Y-118350000D03*
X186050000Y-126650000D03*
%TD*%
D10*
%TO.C,J13*%
X163216666Y-144499999D03*
D11*
X163216666Y-133099999D03*
X163216666Y-141399999D03*
%TD*%
D12*
%TO.C,RV7*%
X181200000Y-90750000D03*
X190800000Y-90750000D03*
D13*
X183500000Y-98250000D03*
D14*
X186000000Y-98250000D03*
X188500000Y-98250000D03*
%TD*%
D13*
%TO.C,D4*%
X169110000Y-58440000D03*
D14*
X171650000Y-58440000D03*
%TD*%
D10*
%TO.C,J14*%
X151800000Y-144499999D03*
D11*
X151800000Y-133099999D03*
X151800000Y-141399999D03*
%TD*%
D12*
%TO.C,RV5*%
X147650000Y-90750000D03*
X157250000Y-90750000D03*
D13*
X149950000Y-98250000D03*
D14*
X152450000Y-98250000D03*
X154950000Y-98250000D03*
%TD*%
D10*
%TO.C,J4*%
X151800000Y-113250000D03*
D11*
X151800000Y-101850000D03*
X151800000Y-110150000D03*
%TD*%
D15*
%TO.C,J9*%
X140800000Y-122000000D03*
D16*
X140800000Y-124540000D03*
X140800000Y-127080000D03*
X140800000Y-129620000D03*
%TD*%
D17*
%TO.C,SW1*%
X147000000Y-55400000D03*
X163000000Y-55400000D03*
D18*
X160000000Y-46250000D03*
D19*
X160000000Y-64550000D03*
D18*
X157500000Y-64550000D03*
X155000000Y-64550000D03*
X152500000Y-64550000D03*
X150000000Y-64550000D03*
X150000000Y-46250000D03*
X152500000Y-46250000D03*
X155000000Y-46250000D03*
X157500000Y-46250000D03*
%TD*%
D15*
%TO.C,J7*%
X95300000Y-122000000D03*
D16*
X95300000Y-124540000D03*
X95300000Y-127080000D03*
X95300000Y-129620000D03*
%TD*%
D10*
%TO.C,J15*%
X174633332Y-144499999D03*
D11*
X174633332Y-133099999D03*
X174633332Y-141399999D03*
%TD*%
D15*
%TO.C,J1*%
X105375000Y-41620000D03*
D16*
X107915000Y-41620000D03*
X110455000Y-41620000D03*
X112995000Y-41620000D03*
X115535000Y-41620000D03*
X118075000Y-41620000D03*
X120615000Y-41620000D03*
X123155000Y-41620000D03*
X125695000Y-41620000D03*
X128235000Y-41620000D03*
X130775000Y-41620000D03*
X133315000Y-41620000D03*
%TD*%
D10*
%TO.C,J5*%
X174633332Y-113250000D03*
D11*
X174633332Y-101850000D03*
X174633332Y-110150000D03*
%TD*%
D10*
%TO.C,J16*%
X186050000Y-144499999D03*
D11*
X186050000Y-133099999D03*
X186050000Y-141399999D03*
%TD*%
D13*
%TO.C,D3*%
X169120000Y-53950000D03*
D14*
X171660000Y-53950000D03*
%TD*%
D12*
%TO.C,RV3*%
X164640000Y-71720000D03*
X174240000Y-71720000D03*
D13*
X166940000Y-79220000D03*
D14*
X169440000Y-79220000D03*
X171940000Y-79220000D03*
%TD*%
D12*
%TO.C,RV1*%
X178680000Y-52960000D03*
X188280000Y-52960000D03*
D13*
X180980000Y-60460000D03*
D14*
X183480000Y-60460000D03*
X185980000Y-60460000D03*
%TD*%
D20*
%TO.C,C20*%
X111775000Y-123250000D03*
X110050000Y-123250000D03*
%TD*%
D21*
%TO.C,TP5*%
X121875000Y-99500000D03*
%TD*%
%TO.C,TP7*%
X136600000Y-122040000D03*
%TD*%
D20*
%TO.C,C8*%
X187750000Y-69930000D03*
X186025000Y-69930000D03*
%TD*%
D22*
%TO.C,R71*%
X129750000Y-115000000D03*
X129750000Y-116825000D03*
%TD*%
D23*
%TO.C,R93*%
X128575000Y-101750000D03*
X130400000Y-101750000D03*
%TD*%
D15*
%TO.C,J18*%
X191550000Y-122270000D03*
D16*
X191550000Y-124810000D03*
X191550000Y-127350000D03*
X191550000Y-129890000D03*
%TD*%
D24*
%TO.C,R76*%
X101325000Y-128450000D03*
X99500000Y-128450000D03*
%TD*%
D25*
%TO.C,R6*%
X149800000Y-43000000D03*
X149800000Y-41175000D03*
%TD*%
D26*
%TO.C,RV11*%
X122750000Y-79500000D03*
D27*
X123900000Y-84600000D03*
D26*
X125050000Y-79500000D03*
%TD*%
D24*
%TO.C,R75*%
X166340000Y-62390000D03*
X164515000Y-62390000D03*
%TD*%
D22*
%TO.C,R25*%
X110550000Y-44750000D03*
X110550000Y-46575000D03*
%TD*%
D26*
%TO.C,RV13*%
X96070000Y-87450000D03*
D27*
X97220000Y-92550000D03*
D26*
X98370000Y-87450000D03*
%TD*%
D22*
%TO.C,R38*%
X149800000Y-67000000D03*
X149800000Y-68825000D03*
%TD*%
D25*
%TO.C,R5*%
X162750000Y-47250000D03*
X162750000Y-45425000D03*
%TD*%
%TO.C,R90*%
X113975000Y-99550000D03*
X113975000Y-97725000D03*
%TD*%
D22*
%TO.C,R69*%
X127800000Y-115000000D03*
X127800000Y-116825000D03*
%TD*%
%TO.C,R56*%
X108300000Y-79500000D03*
X108300000Y-81325000D03*
%TD*%
D28*
%TO.C,C22*%
X118750000Y-142250000D03*
X115150000Y-142250000D03*
%TD*%
D29*
%TO.C,C24*%
X114450000Y-94225000D03*
X112900000Y-94225000D03*
%TD*%
D24*
%TO.C,R79*%
X101375000Y-130025000D03*
X99550000Y-130025000D03*
%TD*%
D22*
%TO.C,R96*%
X174000000Y-57600000D03*
X174000000Y-59425000D03*
%TD*%
D23*
%TO.C,R80*%
X99550000Y-133750000D03*
X101375000Y-133750000D03*
%TD*%
%TO.C,R51*%
X128637500Y-79000000D03*
X130462500Y-79000000D03*
%TD*%
D24*
%TO.C,R55*%
X98300000Y-66250000D03*
X96475000Y-66250000D03*
%TD*%
D22*
%TO.C,R70*%
X125550000Y-114925000D03*
X125550000Y-116750000D03*
%TD*%
D30*
%TO.C,C15*%
X133300000Y-109250000D03*
X133300000Y-107525000D03*
%TD*%
D23*
%TO.C,R12*%
X133550000Y-56650000D03*
X135375000Y-56650000D03*
%TD*%
D24*
%TO.C,R98*%
X114250000Y-118230000D03*
X112425000Y-118230000D03*
%TD*%
%TO.C,R48*%
X130550000Y-81250000D03*
X128725000Y-81250000D03*
%TD*%
D23*
%TO.C,R88*%
X104137500Y-123500000D03*
X105962500Y-123500000D03*
%TD*%
D31*
%TO.C,U3*%
X185240000Y-64580000D03*
X185240000Y-65850000D03*
X185240000Y-67120000D03*
X185240000Y-68390000D03*
X180290000Y-68390000D03*
X180290000Y-67120000D03*
X180290000Y-65850000D03*
X180290000Y-64580000D03*
%TD*%
D23*
%TO.C,R22*%
X111300000Y-57500000D03*
X113125000Y-57500000D03*
%TD*%
D25*
%TO.C,R53*%
X112250000Y-85075000D03*
X112250000Y-83250000D03*
%TD*%
D24*
%TO.C,R30*%
X175435000Y-65270000D03*
X173610000Y-65270000D03*
%TD*%
D21*
%TO.C,TP1*%
X119375000Y-86800000D03*
%TD*%
D32*
%TO.C,C14*%
X159550000Y-101750000D03*
X159550000Y-103475000D03*
%TD*%
D20*
%TO.C,C17*%
X109775000Y-101000000D03*
X108050000Y-101000000D03*
%TD*%
D25*
%TO.C,R10*%
X117300000Y-58250000D03*
X117300000Y-56425000D03*
%TD*%
D23*
%TO.C,R13*%
X124225000Y-63400000D03*
X126050000Y-63400000D03*
%TD*%
D33*
%TO.C,J20*%
X136500000Y-141250000D03*
D16*
X136500000Y-138710000D03*
X133960000Y-141250000D03*
X133960000Y-138710000D03*
X131420000Y-141250000D03*
X131420000Y-138710000D03*
X128880000Y-141250000D03*
X128880000Y-138710000D03*
X126340000Y-141250000D03*
X126340000Y-138710000D03*
%TD*%
D25*
%TO.C,R19*%
X102050000Y-48500000D03*
X102050000Y-46675000D03*
%TD*%
D30*
%TO.C,C9*%
X131800000Y-74225000D03*
X131800000Y-72500000D03*
%TD*%
D22*
%TO.C,R61*%
X177550000Y-118250000D03*
X177550000Y-120075000D03*
%TD*%
%TO.C,R83*%
X96050000Y-115425000D03*
X96050000Y-117250000D03*
%TD*%
%TO.C,R29*%
X164060000Y-77405000D03*
X164060000Y-79230000D03*
%TD*%
D23*
%TO.C,R54*%
X96475000Y-68500000D03*
X98300000Y-68500000D03*
%TD*%
%TO.C,R59*%
X119225000Y-107250000D03*
X121050000Y-107250000D03*
%TD*%
%TO.C,R89*%
X108950000Y-95950000D03*
X110775000Y-95950000D03*
%TD*%
D25*
%TO.C,R49*%
X136800000Y-75750000D03*
X136800000Y-73925000D03*
%TD*%
D31*
%TO.C,U7*%
X128800000Y-105440000D03*
X128800000Y-106710000D03*
X128800000Y-107980000D03*
X128800000Y-109250000D03*
X128800000Y-110520000D03*
X128800000Y-111790000D03*
X128800000Y-113060000D03*
X123850000Y-113060000D03*
X123850000Y-111790000D03*
X123850000Y-110520000D03*
X123850000Y-109250000D03*
X123850000Y-107980000D03*
X123850000Y-106710000D03*
X123850000Y-105440000D03*
%TD*%
%TO.C,U9*%
X110050000Y-116940000D03*
X110050000Y-118210000D03*
X110050000Y-119480000D03*
X110050000Y-120750000D03*
X105100000Y-120750000D03*
X105100000Y-119480000D03*
X105100000Y-118210000D03*
X105100000Y-116940000D03*
%TD*%
D25*
%TO.C,R2*%
X188220000Y-60505000D03*
X188220000Y-58680000D03*
%TD*%
D23*
%TO.C,R94*%
X124225000Y-102725000D03*
X126050000Y-102725000D03*
%TD*%
D24*
%TO.C,R52*%
X122125000Y-64750000D03*
X120300000Y-64750000D03*
%TD*%
D22*
%TO.C,R91*%
X171620000Y-48275000D03*
X171620000Y-50100000D03*
%TD*%
D23*
%TO.C,R73*%
X106050000Y-125500000D03*
X107875000Y-125500000D03*
%TD*%
D25*
%TO.C,R95*%
X166810000Y-54092500D03*
X166810000Y-52267500D03*
%TD*%
%TO.C,R4*%
X146750000Y-43000000D03*
X146750000Y-41175000D03*
%TD*%
%TO.C,R65*%
X154800000Y-120075000D03*
X154800000Y-118250000D03*
%TD*%
D20*
%TO.C,C7*%
X179322500Y-63120000D03*
X177597500Y-63120000D03*
%TD*%
D34*
%TO.C,C5*%
X101325000Y-59500000D03*
X103050000Y-59500000D03*
%TD*%
D23*
%TO.C,R97*%
X112430000Y-119860000D03*
X114255000Y-119860000D03*
%TD*%
D25*
%TO.C,R34*%
X175340000Y-63560000D03*
X175340000Y-61735000D03*
%TD*%
D30*
%TO.C,C13*%
X113800000Y-74475000D03*
X113800000Y-72750000D03*
%TD*%
%TO.C,C10*%
X121300000Y-73612500D03*
X121300000Y-71887500D03*
%TD*%
D34*
%TO.C,C18*%
X135025000Y-127250000D03*
X136750000Y-127250000D03*
%TD*%
D24*
%TO.C,R15*%
X121550000Y-53400000D03*
X119725000Y-53400000D03*
%TD*%
D22*
%TO.C,R50*%
X115300000Y-69250000D03*
X115300000Y-71075000D03*
%TD*%
D23*
%TO.C,R74*%
X99550000Y-131500000D03*
X101375000Y-131500000D03*
%TD*%
D22*
%TO.C,R24*%
X108050000Y-44750000D03*
X108050000Y-46575000D03*
%TD*%
D31*
%TO.C,U5*%
X108050000Y-67730000D03*
X108050000Y-69000000D03*
X108050000Y-70270000D03*
X108050000Y-71540000D03*
X108050000Y-72810000D03*
X108050000Y-74080000D03*
X108050000Y-75350000D03*
X103100000Y-75350000D03*
X103100000Y-74080000D03*
X103100000Y-72810000D03*
X103100000Y-71540000D03*
X103100000Y-70270000D03*
X103100000Y-69000000D03*
X103100000Y-67730000D03*
%TD*%
D35*
%TO.C,Q1*%
X107100000Y-64000000D03*
X107100000Y-62100000D03*
X108975000Y-63050000D03*
%TD*%
D24*
%TO.C,R26*%
X113125000Y-55750000D03*
X111300000Y-55750000D03*
%TD*%
D22*
%TO.C,R35*%
X156800000Y-67000000D03*
X156800000Y-68825000D03*
%TD*%
D20*
%TO.C,C1*%
X121550000Y-59150000D03*
X119825000Y-59150000D03*
%TD*%
D25*
%TO.C,R63*%
X171300000Y-134825000D03*
X171300000Y-133000000D03*
%TD*%
%TO.C,R28*%
X173800000Y-79230000D03*
X173800000Y-77405000D03*
%TD*%
%TO.C,R27*%
X111300000Y-64100000D03*
X111300000Y-62275000D03*
%TD*%
D22*
%TO.C,R17*%
X118050000Y-44750000D03*
X118050000Y-46575000D03*
%TD*%
D24*
%TO.C,R58*%
X100275000Y-76555000D03*
X98450000Y-76555000D03*
%TD*%
D21*
%TO.C,TP8*%
X140900000Y-133290000D03*
%TD*%
D22*
%TO.C,R77*%
X118350000Y-88750000D03*
X118350000Y-90575000D03*
%TD*%
D35*
%TO.C,Q7*%
X164960000Y-60300000D03*
X164960000Y-58400000D03*
X166835000Y-59350000D03*
%TD*%
D21*
%TO.C,TP4*%
X108075000Y-106100000D03*
%TD*%
D25*
%TO.C,R43*%
X134800000Y-75750000D03*
X134800000Y-73925000D03*
%TD*%
D24*
%TO.C,R60*%
X104000000Y-106500000D03*
X102175000Y-106500000D03*
%TD*%
D36*
%TO.C,RV8*%
X112450000Y-51650000D03*
D37*
X117550000Y-50500000D03*
D36*
X112450000Y-49350000D03*
%TD*%
D22*
%TO.C,R36*%
X151550000Y-67000000D03*
X151550000Y-68825000D03*
%TD*%
D32*
%TO.C,C6*%
X113050000Y-62375000D03*
X113050000Y-64100000D03*
%TD*%
D38*
%TO.C,C25*%
X134600000Y-97750000D03*
X134600000Y-96200000D03*
%TD*%
D21*
%TO.C,TP9*%
X133325000Y-122025000D03*
%TD*%
D34*
%TO.C,C2*%
X133575000Y-58500000D03*
X135300000Y-58500000D03*
%TD*%
D24*
%TO.C,R9*%
X135375000Y-54900000D03*
X133550000Y-54900000D03*
%TD*%
D23*
%TO.C,R8*%
X131975000Y-52900000D03*
X133800000Y-52900000D03*
%TD*%
D22*
%TO.C,R18*%
X115550000Y-44750000D03*
X115550000Y-46575000D03*
%TD*%
D23*
%TO.C,R82*%
X112825000Y-92525000D03*
X114650000Y-92525000D03*
%TD*%
D39*
%TO.C,Q6*%
X167610000Y-48562500D03*
X169510000Y-48562500D03*
X168560000Y-50437500D03*
%TD*%
D32*
%TO.C,C11*%
X110800000Y-71500000D03*
X110800000Y-73225000D03*
%TD*%
D40*
%TO.C,C19*%
X133400000Y-131000000D03*
X137000000Y-131000000D03*
%TD*%
D25*
%TO.C,R20*%
X105050000Y-46575000D03*
X105050000Y-44750000D03*
%TD*%
D31*
%TO.C,U1*%
X129300000Y-52880000D03*
X129300000Y-54150000D03*
X129300000Y-55420000D03*
X129300000Y-56690000D03*
X129300000Y-57960000D03*
X129300000Y-59230000D03*
X129300000Y-60500000D03*
X129300000Y-61770000D03*
X124350000Y-61770000D03*
X124350000Y-60500000D03*
X124350000Y-59230000D03*
X124350000Y-57960000D03*
X124350000Y-56690000D03*
X124350000Y-55420000D03*
X124350000Y-54150000D03*
X124350000Y-52880000D03*
%TD*%
D32*
%TO.C,C21*%
X101300000Y-116775000D03*
X101300000Y-118500000D03*
%TD*%
D41*
%TO.C,D2*%
X112050000Y-79500000D03*
X112050000Y-76200000D03*
%TD*%
D23*
%TO.C,R16*%
X119725000Y-55150000D03*
X121550000Y-55150000D03*
%TD*%
D25*
%TO.C,R7*%
X151800000Y-43000000D03*
X151800000Y-41175000D03*
%TD*%
D24*
%TO.C,R31*%
X183795000Y-62940000D03*
X181970000Y-62940000D03*
%TD*%
D36*
%TO.C,RV9*%
X132550000Y-50600000D03*
D37*
X137650000Y-49450000D03*
D36*
X132550000Y-48300000D03*
%TD*%
D23*
%TO.C,R86*%
X103725000Y-133750000D03*
X105550000Y-133750000D03*
%TD*%
D34*
%TO.C,C4*%
X104825000Y-51500000D03*
X106550000Y-51500000D03*
%TD*%
D20*
%TO.C,C3*%
X133300000Y-61500000D03*
X131575000Y-61500000D03*
%TD*%
D24*
%TO.C,R14*%
X126300000Y-51000000D03*
X124475000Y-51000000D03*
%TD*%
D31*
%TO.C,U8*%
X105550000Y-97150000D03*
X105550000Y-98420000D03*
X105550000Y-99690000D03*
X105550000Y-100960000D03*
X105550000Y-102230000D03*
X105550000Y-103500000D03*
X105550000Y-104770000D03*
X100600000Y-104770000D03*
X100600000Y-103500000D03*
X100600000Y-102230000D03*
X100600000Y-100960000D03*
X100600000Y-99690000D03*
X100600000Y-98420000D03*
X100600000Y-97150000D03*
%TD*%
D21*
%TO.C,TP6*%
X102400000Y-44350000D03*
%TD*%
D42*
%TO.C,Q5*%
X118240000Y-97125000D03*
X116340000Y-97125000D03*
X117290000Y-99400000D03*
%TD*%
D24*
%TO.C,R21*%
X97875000Y-47000000D03*
X96050000Y-47000000D03*
%TD*%
D25*
%TO.C,R3*%
X148250000Y-43000000D03*
X148250000Y-41175000D03*
%TD*%
D23*
%TO.C,R47*%
X120725000Y-75250000D03*
X122550000Y-75250000D03*
%TD*%
D31*
%TO.C,U2*%
X108050000Y-53710000D03*
X108050000Y-54980000D03*
X108050000Y-56250000D03*
X108050000Y-57520000D03*
X103100000Y-57520000D03*
X103100000Y-56250000D03*
X103100000Y-54980000D03*
X103100000Y-53710000D03*
%TD*%
D25*
%TO.C,R62*%
X182800000Y-120075000D03*
X182800000Y-118250000D03*
%TD*%
D23*
%TO.C,R87*%
X112800000Y-96000000D03*
X114625000Y-96000000D03*
%TD*%
D43*
%TO.C,RV14*%
X100225000Y-109975000D03*
D44*
X95125000Y-111125000D03*
D43*
X100225000Y-112275000D03*
%TD*%
D23*
%TO.C,R11*%
X119725000Y-57150000D03*
X121550000Y-57150000D03*
%TD*%
%TO.C,R85*%
X99725000Y-126750000D03*
X101550000Y-126750000D03*
%TD*%
D25*
%TO.C,R68*%
X159962500Y-134825000D03*
X159962500Y-133000000D03*
%TD*%
%TO.C,R84*%
X98300000Y-117250000D03*
X98300000Y-115425000D03*
%TD*%
%TO.C,R64*%
X171550000Y-120075000D03*
X171550000Y-118250000D03*
%TD*%
D24*
%TO.C,R46*%
X133875000Y-70500000D03*
X132050000Y-70500000D03*
%TD*%
D45*
%TO.C,U6*%
X110800000Y-83350000D03*
X110800000Y-84000000D03*
X110800000Y-84650000D03*
X108900000Y-84650000D03*
X108900000Y-84000000D03*
X108900000Y-83350000D03*
%TD*%
D23*
%TO.C,R45*%
X120225000Y-67250000D03*
X122050000Y-67250000D03*
%TD*%
D22*
%TO.C,R32*%
X179780000Y-71950000D03*
X179780000Y-73775000D03*
%TD*%
D31*
%TO.C,U4*%
X129500000Y-67940000D03*
X129500000Y-69210000D03*
X129500000Y-70480000D03*
X129500000Y-71750000D03*
X129500000Y-73020000D03*
X129500000Y-74290000D03*
X129500000Y-75560000D03*
X124550000Y-75560000D03*
X124550000Y-74290000D03*
X124550000Y-73020000D03*
X124550000Y-71750000D03*
X124550000Y-70480000D03*
X124550000Y-69210000D03*
X124550000Y-67940000D03*
%TD*%
D22*
%TO.C,R67*%
X148800000Y-118250000D03*
X148800000Y-120075000D03*
%TD*%
D46*
%TO.C,D1*%
X104300000Y-61600000D03*
X104300000Y-64900000D03*
%TD*%
D25*
%TO.C,R66*%
X160050000Y-120162500D03*
X160050000Y-118337500D03*
%TD*%
D26*
%TO.C,RV12*%
X96070000Y-79950000D03*
D27*
X97220000Y-85050000D03*
D26*
X98370000Y-79950000D03*
%TD*%
D34*
%TO.C,C12*%
X98575000Y-71500000D03*
X100300000Y-71500000D03*
%TD*%
D24*
%TO.C,R92*%
X109825000Y-99400000D03*
X108000000Y-99400000D03*
%TD*%
D39*
%TO.C,Q3*%
X121350000Y-117375000D03*
X123250000Y-117375000D03*
X122300000Y-119250000D03*
%TD*%
D24*
%TO.C,R81*%
X105462500Y-131500000D03*
X103637500Y-131500000D03*
%TD*%
%TO.C,R23*%
X98550000Y-59500000D03*
X96725000Y-59500000D03*
%TD*%
D21*
%TO.C,TP2*%
X124870000Y-92320000D03*
%TD*%
D15*
%TO.C,J17*%
X156100000Y-41890000D03*
D16*
X158640000Y-41890000D03*
X161180000Y-41890000D03*
X163720000Y-41890000D03*
X166260000Y-41890000D03*
X168800000Y-41890000D03*
X171340000Y-41890000D03*
X173880000Y-41890000D03*
X176420000Y-41890000D03*
X178960000Y-41890000D03*
X181500000Y-41890000D03*
X184040000Y-41890000D03*
%TD*%
D23*
%TO.C,R78*%
X103550000Y-129500000D03*
X105375000Y-129500000D03*
%TD*%
%TO.C,R44*%
X117225000Y-78000000D03*
X119050000Y-78000000D03*
%TD*%
D21*
%TO.C,TP3*%
X116375000Y-106575000D03*
%TD*%
D47*
%TO.C,Q2*%
X119925000Y-104650000D03*
X118025000Y-104650000D03*
X118975000Y-102775000D03*
%TD*%
D21*
%TO.C,TP10*%
X158180000Y-49490000D03*
%TD*%
D22*
%TO.C,R37*%
X153300000Y-67000000D03*
X153300000Y-68825000D03*
%TD*%
D23*
%TO.C,R42*%
X120725000Y-77000000D03*
X122550000Y-77000000D03*
%TD*%
D15*
%TO.C,J19*%
X146050000Y-122270000D03*
D16*
X146050000Y-124810000D03*
X146050000Y-127350000D03*
X146050000Y-129890000D03*
%TD*%
D43*
%TO.C,RV10*%
X100075000Y-40025000D03*
D44*
X94975000Y-41175000D03*
D43*
X100075000Y-42325000D03*
%TD*%
D24*
%TO.C,R72*%
X101550000Y-125000000D03*
X99725000Y-125000000D03*
%TD*%
D25*
%TO.C,R57*%
X100300000Y-68500000D03*
X100300000Y-66675000D03*
%TD*%
D24*
%TO.C,R41*%
X126125000Y-65750000D03*
X124300000Y-65750000D03*
%TD*%
D42*
%TO.C,Q4*%
X118380000Y-92365000D03*
X116480000Y-92365000D03*
X117430000Y-94640000D03*
%TD*%
D24*
%TO.C,R40*%
X122050000Y-69250000D03*
X120225000Y-69250000D03*
%TD*%
D30*
%TO.C,C16*%
X120300000Y-110750000D03*
X120300000Y-109025000D03*
%TD*%
D22*
%TO.C,R1*%
X178120000Y-58645000D03*
X178120000Y-60470000D03*
%TD*%
D24*
%TO.C,R33*%
X172060000Y-65260000D03*
X170235000Y-65260000D03*
%TD*%
D20*
%TO.C,C23*%
X111000000Y-142000000D03*
X109275000Y-142000000D03*
%TD*%
D48*
%TO.C,U10*%
X126650000Y-100025000D03*
X126650000Y-98755000D03*
X126650000Y-97485000D03*
X126650000Y-96215000D03*
X131600000Y-96215000D03*
X131600000Y-97485000D03*
X131600000Y-98755000D03*
X131600000Y-100025000D03*
%TD*%
D24*
%TO.C,R39*%
X132200000Y-77200000D03*
X130375000Y-77200000D03*
%TD*%
D32*
%TO.C,C26*%
X131600000Y-92250000D03*
X131600000Y-93975000D03*
%TD*%
M02*
