%TF.GenerationSoftware,KiCad,Pcbnew,9.0.6*%
%TF.CreationDate,2025-11-20T09:41:43+01:00*%
%TF.ProjectId,Th-555-biondo,54682d35-3535-42d6-9269-6f6e646f2e6b,rev?*%
%TF.SameCoordinates,Original*%
%TF.FileFunction,Soldermask,Top*%
%TF.FilePolarity,Negative*%
%FSLAX46Y46*%
G04 Gerber Fmt 4.6, Leading zero omitted, Abs format (unit mm)*
G04 Created by KiCad (PCBNEW 9.0.6) date 2025-11-20 09:41:43*
%MOMM*%
%LPD*%
G01*
G04 APERTURE LIST*
G04 Aperture macros list*
%AMRoundRect*
0 Rectangle with rounded corners*
0 $1 Rounding radius*
0 $2 $3 $4 $5 $6 $7 $8 $9 X,Y pos of 4 corners*
0 Add a 4 corners polygon primitive as box body*
4,1,4,$2,$3,$4,$5,$6,$7,$8,$9,$2,$3,0*
0 Add four circle primitives for the rounded corners*
1,1,$1+$1,$2,$3*
1,1,$1+$1,$4,$5*
1,1,$1+$1,$6,$7*
1,1,$1+$1,$8,$9*
0 Add four rect primitives between the rounded corners*
20,1,$1+$1,$2,$3,$4,$5,0*
20,1,$1+$1,$4,$5,$6,$7,0*
20,1,$1+$1,$6,$7,$8,$9,0*
20,1,$1+$1,$8,$9,$2,$3,0*%
G04 Aperture macros list end*
%ADD10R,1.930000X1.830000*%
%ADD11C,2.130000*%
%ADD12O,2.720000X3.786000*%
%ADD13R,1.800000X1.800000*%
%ADD14C,1.800000*%
%ADD15RoundRect,0.250000X-0.400000X-0.700000X0.400000X-0.700000X0.400000X0.700000X-0.400000X0.700000X0*%
%ADD16RoundRect,0.250000X-0.750000X-0.700000X0.750000X-0.700000X0.750000X0.700000X-0.750000X0.700000X0*%
%ADD17R,1.700000X1.700000*%
%ADD18C,1.700000*%
%ADD19C,2.700000*%
%ADD20C,1.750000*%
%ADD21R,1.750000X1.524000*%
%ADD22RoundRect,0.250000X0.600000X-0.600000X0.600000X0.600000X-0.600000X0.600000X-0.600000X-0.600000X0*%
G04 APERTURE END LIST*
D10*
%TO.C,J6*%
X186050000Y-113250000D03*
D11*
X186050000Y-101850000D03*
X186050000Y-110150000D03*
%TD*%
D10*
%TO.C,J3*%
X163216666Y-113250000D03*
D11*
X163216666Y-101850000D03*
X163216666Y-110150000D03*
%TD*%
D12*
%TO.C,RV2*%
X181200000Y-76720000D03*
X190800000Y-76720000D03*
D13*
X183500000Y-84220000D03*
D14*
X186000000Y-84220000D03*
X188500000Y-84220000D03*
%TD*%
D10*
%TO.C,J2*%
X154050000Y-83030000D03*
D11*
X154050000Y-71630000D03*
X154050000Y-79930000D03*
%TD*%
D12*
%TO.C,RV6*%
X160900000Y-90750000D03*
X170500000Y-90750000D03*
D13*
X163200000Y-98250000D03*
D14*
X165700000Y-98250000D03*
X168200000Y-98250000D03*
%TD*%
D10*
%TO.C,J10*%
X163216666Y-129750000D03*
D11*
X163216666Y-118350000D03*
X163216666Y-126650000D03*
%TD*%
D10*
%TO.C,J12*%
X174633332Y-129750000D03*
D11*
X174633332Y-118350000D03*
X174633332Y-126650000D03*
%TD*%
D10*
%TO.C,J8*%
X151800000Y-129750000D03*
D11*
X151800000Y-118350000D03*
X151800000Y-126650000D03*
%TD*%
D15*
%TO.C,RV4*%
X190820000Y-64810000D03*
D16*
X189670000Y-69910000D03*
D15*
X188520000Y-64810000D03*
%TD*%
D10*
%TO.C,J11*%
X186050000Y-129750000D03*
D11*
X186050000Y-118350000D03*
X186050000Y-126650000D03*
%TD*%
D10*
%TO.C,J13*%
X163216666Y-144499999D03*
D11*
X163216666Y-133099999D03*
X163216666Y-141399999D03*
%TD*%
D12*
%TO.C,RV7*%
X181200000Y-90750000D03*
X190800000Y-90750000D03*
D13*
X183500000Y-98250000D03*
D14*
X186000000Y-98250000D03*
X188500000Y-98250000D03*
%TD*%
D13*
%TO.C,D4*%
X169110000Y-58440000D03*
D14*
X171650000Y-58440000D03*
%TD*%
D10*
%TO.C,J14*%
X151800000Y-144499999D03*
D11*
X151800000Y-133099999D03*
X151800000Y-141399999D03*
%TD*%
D12*
%TO.C,RV5*%
X147650000Y-90750000D03*
X157250000Y-90750000D03*
D13*
X149950000Y-98250000D03*
D14*
X152450000Y-98250000D03*
X154950000Y-98250000D03*
%TD*%
D10*
%TO.C,J4*%
X151800000Y-113250000D03*
D11*
X151800000Y-101850000D03*
X151800000Y-110150000D03*
%TD*%
D17*
%TO.C,J9*%
X140800000Y-122000000D03*
D18*
X140800000Y-124540000D03*
X140800000Y-127080000D03*
X140800000Y-129620000D03*
%TD*%
D19*
%TO.C,SW1*%
X147000000Y-55400000D03*
X163000000Y-55400000D03*
D20*
X160000000Y-46250000D03*
D21*
X160000000Y-64550000D03*
D20*
X157500000Y-64550000D03*
X155000000Y-64550000D03*
X152500000Y-64550000D03*
X150000000Y-64550000D03*
X150000000Y-46250000D03*
X152500000Y-46250000D03*
X155000000Y-46250000D03*
X157500000Y-46250000D03*
%TD*%
D15*
%TO.C,RV15*%
X177160000Y-91410000D03*
D16*
X176010000Y-96510000D03*
D15*
X174860000Y-91410000D03*
%TD*%
D17*
%TO.C,J7*%
X95300000Y-122000000D03*
D18*
X95300000Y-124540000D03*
X95300000Y-127080000D03*
X95300000Y-129620000D03*
%TD*%
D10*
%TO.C,J15*%
X174633332Y-144499999D03*
D11*
X174633332Y-133099999D03*
X174633332Y-141399999D03*
%TD*%
D17*
%TO.C,J1*%
X105375000Y-41620000D03*
D18*
X107915000Y-41620000D03*
X110455000Y-41620000D03*
X112995000Y-41620000D03*
X115535000Y-41620000D03*
X118075000Y-41620000D03*
X120615000Y-41620000D03*
X123155000Y-41620000D03*
X125695000Y-41620000D03*
X128235000Y-41620000D03*
X130775000Y-41620000D03*
X133315000Y-41620000D03*
%TD*%
D10*
%TO.C,J5*%
X174633332Y-113250000D03*
D11*
X174633332Y-101850000D03*
X174633332Y-110150000D03*
%TD*%
D10*
%TO.C,J16*%
X186050000Y-144499999D03*
D11*
X186050000Y-133099999D03*
X186050000Y-141399999D03*
%TD*%
D13*
%TO.C,D3*%
X169120000Y-53950000D03*
D14*
X171660000Y-53950000D03*
%TD*%
D12*
%TO.C,RV3*%
X164640000Y-71720000D03*
X174240000Y-71720000D03*
D13*
X166940000Y-79220000D03*
D14*
X169440000Y-79220000D03*
X171940000Y-79220000D03*
%TD*%
D12*
%TO.C,RV1*%
X178680000Y-52960000D03*
X188280000Y-52960000D03*
D13*
X180980000Y-60460000D03*
D14*
X183480000Y-60460000D03*
X185980000Y-60460000D03*
%TD*%
D17*
%TO.C,J18*%
X191550000Y-122270000D03*
D18*
X191550000Y-124810000D03*
X191550000Y-127350000D03*
X191550000Y-129890000D03*
%TD*%
D22*
%TO.C,J20*%
X136500000Y-141250000D03*
D18*
X136500000Y-138710000D03*
X133960000Y-141250000D03*
X133960000Y-138710000D03*
X131420000Y-141250000D03*
X131420000Y-138710000D03*
X128880000Y-141250000D03*
X128880000Y-138710000D03*
X126340000Y-141250000D03*
X126340000Y-138710000D03*
%TD*%
D17*
%TO.C,J17*%
X156100000Y-41890000D03*
D18*
X158640000Y-41890000D03*
X161180000Y-41890000D03*
X163720000Y-41890000D03*
X166260000Y-41890000D03*
X168800000Y-41890000D03*
X171340000Y-41890000D03*
X173880000Y-41890000D03*
X176420000Y-41890000D03*
X178960000Y-41890000D03*
X181500000Y-41890000D03*
X184040000Y-41890000D03*
%TD*%
D17*
%TO.C,J19*%
X146050000Y-122270000D03*
D18*
X146050000Y-124810000D03*
X146050000Y-127350000D03*
X146050000Y-129890000D03*
%TD*%
M02*
