%TF.GenerationSoftware,KiCad,Pcbnew,9.0.6*%
%TF.CreationDate,2025-11-20T09:42:16+01:00*%
%TF.ProjectId,Th-555-biondo_front,54682d35-3535-42d6-9269-6f6e646f5f66,rev?*%
%TF.SameCoordinates,Original*%
%TF.FileFunction,Soldermask,Top*%
%TF.FilePolarity,Negative*%
%FSLAX46Y46*%
G04 Gerber Fmt 4.6, Leading zero omitted, Abs format (unit mm)*
G04 Created by KiCad (PCBNEW 9.0.6) date 2025-11-20 09:42:16*
%MOMM*%
%LPD*%
G01*
G04 APERTURE LIST*
%ADD10C,0.000000*%
%ADD11C,0.600000*%
%ADD12O,7.000000X3.200000*%
G04 APERTURE END LIST*
D10*
%TO.C,REF\u002A\u002A*%
G36*
X121465695Y-137550404D02*
G01*
X120114009Y-136770000D01*
X121465695Y-135989605D01*
X121465695Y-137550404D01*
G37*
G36*
X123082566Y-139893085D02*
G01*
X121574954Y-140297046D01*
X121978913Y-138789433D01*
X123082566Y-139893085D01*
G37*
G36*
X123082568Y-133646923D02*
G01*
X121978917Y-134750576D01*
X121574956Y-133242962D01*
X123082568Y-133646923D01*
G37*
G36*
X125102002Y-141757999D02*
G01*
X124321601Y-140406322D01*
X125882401Y-140406322D01*
X125102002Y-141757999D01*
G37*
G36*
X125882399Y-133133686D02*
G01*
X124321599Y-133133686D01*
X125102000Y-131782002D01*
X125882399Y-133133686D01*
G37*
G36*
X128225086Y-134750561D02*
G01*
X127121434Y-133646908D01*
X128629047Y-133242947D01*
X128225086Y-134750561D01*
G37*
G36*
X128629047Y-140297054D02*
G01*
X127121434Y-139893100D01*
X128225086Y-138789440D01*
X128629047Y-140297054D01*
G37*
G36*
X130090000Y-136770000D02*
G01*
X128738316Y-137550404D01*
X128738316Y-135989605D01*
X130090000Y-136770000D01*
G37*
G36*
X144370737Y-105500001D02*
G01*
X143019053Y-106280404D01*
X143019053Y-104719605D01*
X144370737Y-105500001D01*
G37*
G36*
X145006334Y-109517319D02*
G01*
X143902681Y-108413666D01*
X145410295Y-108009713D01*
X145006334Y-109517319D01*
G37*
G36*
X145410295Y-102990304D02*
G01*
X143902681Y-102586342D01*
X145006334Y-101482682D01*
X145410295Y-102990304D01*
G37*
G36*
X147920008Y-101950738D02*
G01*
X147139612Y-100599045D01*
X148700411Y-100599045D01*
X147920008Y-101950738D01*
G37*
G36*
X148700403Y-110400956D02*
G01*
X147139605Y-110400956D01*
X147920000Y-109049264D01*
X148700403Y-110400956D01*
G37*
G36*
X151937319Y-102586327D02*
G01*
X150429705Y-102990288D01*
X150833666Y-101482674D01*
X151937319Y-102586327D01*
G37*
G36*
X151937327Y-108413659D02*
G01*
X150833673Y-109517312D01*
X150429712Y-108009698D01*
X151937327Y-108413659D01*
G37*
G36*
X152820948Y-106280404D02*
G01*
X151469264Y-105500001D01*
X152820948Y-104719605D01*
X152820948Y-106280404D01*
G37*
G36*
X132875695Y-137530404D02*
G01*
X131524009Y-136750000D01*
X132875695Y-135969605D01*
X132875695Y-137530404D01*
G37*
G36*
X134492566Y-139873085D02*
G01*
X132984954Y-140277046D01*
X133388913Y-138769433D01*
X134492566Y-139873085D01*
G37*
G36*
X134492568Y-133626923D02*
G01*
X133388917Y-134730576D01*
X132984956Y-133222962D01*
X134492568Y-133626923D01*
G37*
G36*
X136512002Y-141737999D02*
G01*
X135731601Y-140386322D01*
X137292401Y-140386322D01*
X136512002Y-141737999D01*
G37*
G36*
X137292399Y-133113686D02*
G01*
X135731599Y-133113686D01*
X136512000Y-131762002D01*
X137292399Y-133113686D01*
G37*
G36*
X139635086Y-134730561D02*
G01*
X138531434Y-133626908D01*
X140039047Y-133222947D01*
X139635086Y-134730561D01*
G37*
G36*
X140039047Y-140277054D02*
G01*
X138531434Y-139873100D01*
X139635086Y-138769440D01*
X140039047Y-140277054D01*
G37*
G36*
X141500000Y-136750000D02*
G01*
X140148316Y-137530404D01*
X140148316Y-135969605D01*
X141500000Y-136750000D01*
G37*
G36*
X155790737Y-105530001D02*
G01*
X154439053Y-106310404D01*
X154439053Y-104749605D01*
X155790737Y-105530001D01*
G37*
G36*
X156426334Y-109547319D02*
G01*
X155322681Y-108443666D01*
X156830295Y-108039713D01*
X156426334Y-109547319D01*
G37*
G36*
X156830295Y-103020304D02*
G01*
X155322681Y-102616342D01*
X156426334Y-101512682D01*
X156830295Y-103020304D01*
G37*
G36*
X159340008Y-101980738D02*
G01*
X158559612Y-100629045D01*
X160120411Y-100629045D01*
X159340008Y-101980738D01*
G37*
G36*
X160120403Y-110430956D02*
G01*
X158559605Y-110430956D01*
X159340000Y-109079264D01*
X160120403Y-110430956D01*
G37*
G36*
X163357319Y-102616327D02*
G01*
X161849705Y-103020288D01*
X162253666Y-101512674D01*
X163357319Y-102616327D01*
G37*
G36*
X163357327Y-108443659D02*
G01*
X162253673Y-109547312D01*
X161849712Y-108039698D01*
X163357327Y-108443659D01*
G37*
G36*
X164240948Y-106310404D02*
G01*
X162889264Y-105530001D01*
X164240948Y-104749605D01*
X164240948Y-106310404D01*
G37*
G36*
X144305695Y-122800404D02*
G01*
X142954009Y-122020000D01*
X144305695Y-121239605D01*
X144305695Y-122800404D01*
G37*
G36*
X145922566Y-125143085D02*
G01*
X144414954Y-125547046D01*
X144818913Y-124039433D01*
X145922566Y-125143085D01*
G37*
G36*
X145922568Y-118896923D02*
G01*
X144818917Y-120000576D01*
X144414956Y-118492962D01*
X145922568Y-118896923D01*
G37*
G36*
X147942002Y-127007999D02*
G01*
X147161601Y-125656322D01*
X148722401Y-125656322D01*
X147942002Y-127007999D01*
G37*
G36*
X148722399Y-118383686D02*
G01*
X147161599Y-118383686D01*
X147942000Y-117032002D01*
X148722399Y-118383686D01*
G37*
G36*
X151065086Y-120000561D02*
G01*
X149961434Y-118896908D01*
X151469047Y-118492947D01*
X151065086Y-120000561D01*
G37*
G36*
X151469047Y-125547054D02*
G01*
X149961434Y-125143100D01*
X151065086Y-124039440D01*
X151469047Y-125547054D01*
G37*
G36*
X152930000Y-122020000D02*
G01*
X151578316Y-122800404D01*
X151578316Y-121239605D01*
X152930000Y-122020000D01*
G37*
G36*
X123810737Y-75300001D02*
G01*
X122459053Y-76080404D01*
X122459053Y-74519605D01*
X123810737Y-75300001D01*
G37*
G36*
X124446334Y-79317319D02*
G01*
X123342681Y-78213666D01*
X124850295Y-77809713D01*
X124446334Y-79317319D01*
G37*
G36*
X124850295Y-72790304D02*
G01*
X123342681Y-72386342D01*
X124446334Y-71282682D01*
X124850295Y-72790304D01*
G37*
G36*
X127360008Y-71750738D02*
G01*
X126579612Y-70399045D01*
X128140411Y-70399045D01*
X127360008Y-71750738D01*
G37*
G36*
X128140403Y-80200956D02*
G01*
X126579605Y-80200956D01*
X127360000Y-78849264D01*
X128140403Y-80200956D01*
G37*
G36*
X131377319Y-72386327D02*
G01*
X129869705Y-72790288D01*
X130273666Y-71282674D01*
X131377319Y-72386327D01*
G37*
G36*
X131377327Y-78213659D02*
G01*
X130273673Y-79317312D01*
X129869712Y-77809698D01*
X131377327Y-78213659D01*
G37*
G36*
X132260948Y-76080404D02*
G01*
X130909264Y-75300001D01*
X132260948Y-74519605D01*
X132260948Y-76080404D01*
G37*
G36*
X132885695Y-122800404D02*
G01*
X131534009Y-122020000D01*
X132885695Y-121239605D01*
X132885695Y-122800404D01*
G37*
G36*
X134502566Y-125143085D02*
G01*
X132994954Y-125547046D01*
X133398913Y-124039433D01*
X134502566Y-125143085D01*
G37*
G36*
X134502568Y-118896923D02*
G01*
X133398917Y-120000576D01*
X132994956Y-118492962D01*
X134502568Y-118896923D01*
G37*
G36*
X136522002Y-127007999D02*
G01*
X135741601Y-125656322D01*
X137302401Y-125656322D01*
X136522002Y-127007999D01*
G37*
G36*
X137302399Y-118383686D02*
G01*
X135741599Y-118383686D01*
X136522000Y-117032002D01*
X137302399Y-118383686D01*
G37*
G36*
X139645086Y-120000561D02*
G01*
X138541434Y-118896908D01*
X140049047Y-118492947D01*
X139645086Y-120000561D01*
G37*
G36*
X140049047Y-125547054D02*
G01*
X138541434Y-125143100D01*
X139645086Y-124039440D01*
X140049047Y-125547054D01*
G37*
G36*
X141510000Y-122020000D02*
G01*
X140158316Y-122800404D01*
X140158316Y-121239605D01*
X141510000Y-122020000D01*
G37*
G36*
X155715695Y-137550404D02*
G01*
X154364009Y-136770000D01*
X155715695Y-135989605D01*
X155715695Y-137550404D01*
G37*
G36*
X157332566Y-139893085D02*
G01*
X155824954Y-140297046D01*
X156228913Y-138789433D01*
X157332566Y-139893085D01*
G37*
G36*
X157332568Y-133646923D02*
G01*
X156228917Y-134750576D01*
X155824956Y-133242962D01*
X157332568Y-133646923D01*
G37*
G36*
X159352002Y-141757999D02*
G01*
X158571601Y-140406322D01*
X160132401Y-140406322D01*
X159352002Y-141757999D01*
G37*
G36*
X160132399Y-133133686D02*
G01*
X158571599Y-133133686D01*
X159352000Y-131782002D01*
X160132399Y-133133686D01*
G37*
G36*
X162475086Y-134750561D02*
G01*
X161371434Y-133646908D01*
X162879047Y-133242947D01*
X162475086Y-134750561D01*
G37*
G36*
X162879047Y-140297054D02*
G01*
X161371434Y-139893100D01*
X162475086Y-138789440D01*
X162879047Y-140297054D01*
G37*
G36*
X164340000Y-136770000D02*
G01*
X162988316Y-137550404D01*
X162988316Y-135989605D01*
X164340000Y-136770000D01*
G37*
G36*
X137597194Y-73121232D02*
G01*
X137606623Y-73121949D01*
X137615916Y-73123129D01*
X137625059Y-73124762D01*
X137634042Y-73126835D01*
X137642853Y-73129337D01*
X137651480Y-73132256D01*
X137659912Y-73135580D01*
X137668136Y-73139298D01*
X137676142Y-73143398D01*
X137683917Y-73147869D01*
X137691450Y-73152698D01*
X137698730Y-73157874D01*
X137705744Y-73163386D01*
X137712480Y-73169221D01*
X137718928Y-73175369D01*
X137725076Y-73181816D01*
X137730912Y-73188553D01*
X137736423Y-73195567D01*
X137741600Y-73202846D01*
X137746429Y-73210379D01*
X137750900Y-73218154D01*
X137755000Y-73226159D01*
X137758718Y-73234383D01*
X137762042Y-73242814D01*
X137764961Y-73251441D01*
X137767463Y-73260251D01*
X137769536Y-73269234D01*
X137771169Y-73278377D01*
X137772349Y-73287668D01*
X137773066Y-73297097D01*
X137773308Y-73306651D01*
X137773066Y-73316206D01*
X137772350Y-73325634D01*
X137771169Y-73334926D01*
X137769536Y-73344069D01*
X137767463Y-73353051D01*
X137764962Y-73361862D01*
X137762043Y-73370488D01*
X137758719Y-73378920D01*
X137755001Y-73387144D01*
X137750902Y-73395149D01*
X137746431Y-73402924D01*
X137741603Y-73410457D01*
X137736427Y-73417736D01*
X137730915Y-73424750D01*
X137725080Y-73431486D01*
X137718933Y-73437934D01*
X137712486Y-73444082D01*
X137705749Y-73449917D01*
X137698736Y-73455429D01*
X137691457Y-73460605D01*
X137683925Y-73465434D01*
X137676150Y-73469905D01*
X137668145Y-73474005D01*
X137659921Y-73477723D01*
X137651490Y-73481047D01*
X137642864Y-73483966D01*
X137634054Y-73486468D01*
X137625072Y-73488541D01*
X137615929Y-73490174D01*
X137606637Y-73491354D01*
X137597208Y-73492071D01*
X137587654Y-73492313D01*
X137578099Y-73492071D01*
X137568670Y-73491354D01*
X137559378Y-73490174D01*
X137550234Y-73488541D01*
X137541251Y-73486468D01*
X137532440Y-73483966D01*
X137523813Y-73481047D01*
X137515382Y-73477723D01*
X137507157Y-73474005D01*
X137499151Y-73469905D01*
X137491376Y-73465434D01*
X137483843Y-73460605D01*
X137476564Y-73455429D01*
X137469550Y-73449917D01*
X137462813Y-73444082D01*
X137456365Y-73437934D01*
X137450217Y-73431486D01*
X137444382Y-73424750D01*
X137438870Y-73417736D01*
X137433693Y-73410457D01*
X137428864Y-73402924D01*
X137424394Y-73395149D01*
X137420294Y-73387144D01*
X137416575Y-73378920D01*
X137413251Y-73370488D01*
X137410332Y-73361862D01*
X137407830Y-73353051D01*
X137405757Y-73344069D01*
X137404125Y-73334926D01*
X137402944Y-73325634D01*
X137402227Y-73316206D01*
X137401985Y-73306651D01*
X137402227Y-73297097D01*
X137402944Y-73287668D01*
X137404124Y-73278377D01*
X137405757Y-73269234D01*
X137407830Y-73260251D01*
X137410331Y-73251441D01*
X137413250Y-73242814D01*
X137416574Y-73234383D01*
X137420292Y-73226159D01*
X137424392Y-73218154D01*
X137428862Y-73210379D01*
X137433691Y-73202846D01*
X137438867Y-73195567D01*
X137444378Y-73188553D01*
X137450213Y-73181816D01*
X137456360Y-73175369D01*
X137462808Y-73169221D01*
X137469544Y-73163386D01*
X137476557Y-73157874D01*
X137483836Y-73152698D01*
X137491368Y-73147869D01*
X137499143Y-73143398D01*
X137507148Y-73139298D01*
X137515372Y-73135580D01*
X137523803Y-73132256D01*
X137532429Y-73129337D01*
X137541239Y-73126835D01*
X137550222Y-73124762D01*
X137559365Y-73123129D01*
X137568656Y-73121949D01*
X137578085Y-73121232D01*
X137587639Y-73120990D01*
X137597194Y-73121232D01*
G37*
G36*
X137603570Y-67052988D02*
G01*
X137619285Y-67054183D01*
X137634771Y-67056150D01*
X137650009Y-67058872D01*
X137664980Y-67062327D01*
X137679664Y-67066497D01*
X137694042Y-67071362D01*
X137708095Y-67076902D01*
X137721802Y-67083099D01*
X137735144Y-67089933D01*
X137748102Y-67097384D01*
X137760657Y-67105433D01*
X137772790Y-67114060D01*
X137784479Y-67123246D01*
X137795707Y-67132972D01*
X137806454Y-67143218D01*
X137816700Y-67153965D01*
X137826426Y-67165193D01*
X137835612Y-67176883D01*
X137844239Y-67189015D01*
X137852288Y-67201570D01*
X137859739Y-67214528D01*
X137866573Y-67227871D01*
X137872770Y-67241578D01*
X137878310Y-67255630D01*
X137883175Y-67270008D01*
X137887345Y-67284692D01*
X137890800Y-67299663D01*
X137893522Y-67314901D01*
X137895490Y-67330387D01*
X137896685Y-67346102D01*
X137897087Y-67362026D01*
X137896685Y-67377949D01*
X137895490Y-67393664D01*
X137893522Y-67409150D01*
X137890800Y-67424388D01*
X137887345Y-67439359D01*
X137883175Y-67454043D01*
X137878310Y-67468421D01*
X137872770Y-67482473D01*
X137866573Y-67496180D01*
X137859739Y-67509523D01*
X137852288Y-67522481D01*
X137844239Y-67535036D01*
X137835612Y-67547168D01*
X137826426Y-67558858D01*
X137816700Y-67570086D01*
X137806454Y-67580833D01*
X137795707Y-67591079D01*
X137784479Y-67600805D01*
X137772790Y-67609991D01*
X137760657Y-67618618D01*
X137748102Y-67626667D01*
X137735144Y-67634118D01*
X137721802Y-67640952D01*
X137708095Y-67647149D01*
X137694042Y-67652689D01*
X137679664Y-67657554D01*
X137664980Y-67661724D01*
X137650009Y-67665179D01*
X137634771Y-67667901D01*
X137619285Y-67669869D01*
X137603570Y-67671064D01*
X137587647Y-67671466D01*
X137571723Y-67671064D01*
X137556008Y-67669869D01*
X137540522Y-67667901D01*
X137525284Y-67665179D01*
X137510313Y-67661724D01*
X137495629Y-67657554D01*
X137481251Y-67652689D01*
X137467199Y-67647149D01*
X137453492Y-67640952D01*
X137440149Y-67634118D01*
X137427191Y-67626667D01*
X137414636Y-67618618D01*
X137402504Y-67609991D01*
X137390814Y-67600805D01*
X137379586Y-67591079D01*
X137368839Y-67580833D01*
X137358593Y-67570086D01*
X137348868Y-67558858D01*
X137339681Y-67547168D01*
X137331054Y-67535036D01*
X137323005Y-67522481D01*
X137315554Y-67509523D01*
X137308720Y-67496180D01*
X137302524Y-67482473D01*
X137296983Y-67468421D01*
X137292118Y-67454043D01*
X137287948Y-67439359D01*
X137284493Y-67424388D01*
X137281772Y-67409150D01*
X137279804Y-67393664D01*
X137278609Y-67377949D01*
X137278206Y-67362026D01*
X137278609Y-67346102D01*
X137279804Y-67330387D01*
X137281772Y-67314901D01*
X137284493Y-67299663D01*
X137287948Y-67284692D01*
X137292118Y-67270008D01*
X137296983Y-67255630D01*
X137302524Y-67241578D01*
X137308720Y-67227871D01*
X137315554Y-67214528D01*
X137323005Y-67201570D01*
X137331054Y-67189015D01*
X137339681Y-67176883D01*
X137348868Y-67165193D01*
X137358593Y-67153965D01*
X137368839Y-67143218D01*
X137379586Y-67132972D01*
X137390814Y-67123246D01*
X137402504Y-67114060D01*
X137414636Y-67105433D01*
X137427191Y-67097384D01*
X137440149Y-67089933D01*
X137453492Y-67083099D01*
X137467199Y-67076902D01*
X137481251Y-67071362D01*
X137495629Y-67066497D01*
X137510313Y-67062327D01*
X137525284Y-67058872D01*
X137540522Y-67056150D01*
X137556008Y-67054183D01*
X137571723Y-67052988D01*
X137587647Y-67052585D01*
X137603570Y-67052988D01*
G37*
G36*
X139781940Y-64815271D02*
G01*
X139800228Y-64816632D01*
X139818360Y-64818884D01*
X139836307Y-64822015D01*
X139854038Y-64826012D01*
X139871522Y-64830864D01*
X139888729Y-64836557D01*
X139905628Y-64843078D01*
X139922190Y-64850415D01*
X139938383Y-64858556D01*
X139954177Y-64867488D01*
X139969542Y-64877199D01*
X139984447Y-64887675D01*
X139998862Y-64898904D01*
X140012757Y-64910874D01*
X140026100Y-64923572D01*
X140038798Y-64936915D01*
X140050768Y-64950810D01*
X140061997Y-64965225D01*
X140072473Y-64980130D01*
X140082184Y-64995495D01*
X140091116Y-65011289D01*
X140099257Y-65027482D01*
X140106594Y-65044044D01*
X140113116Y-65060943D01*
X140118808Y-65078150D01*
X140123660Y-65095634D01*
X140127657Y-65113365D01*
X140130788Y-65131312D01*
X140133041Y-65149444D01*
X140134401Y-65167732D01*
X140134857Y-65186145D01*
X140134401Y-65204558D01*
X140133040Y-65222846D01*
X140130788Y-65240978D01*
X140127656Y-65258925D01*
X140123658Y-65276656D01*
X140118806Y-65294140D01*
X140113113Y-65311347D01*
X140106590Y-65328246D01*
X140099252Y-65344808D01*
X140091111Y-65361001D01*
X140082178Y-65376795D01*
X140072467Y-65392160D01*
X140061990Y-65407065D01*
X140050761Y-65421481D01*
X140038791Y-65435375D01*
X140026093Y-65448718D01*
X140012749Y-65461416D01*
X139998855Y-65473386D01*
X139984440Y-65484615D01*
X139969536Y-65495091D01*
X139954171Y-65504802D01*
X139938378Y-65513734D01*
X139922185Y-65521875D01*
X139905625Y-65529212D01*
X139888726Y-65535734D01*
X139871520Y-65541426D01*
X139854036Y-65546278D01*
X139836306Y-65550275D01*
X139818360Y-65553406D01*
X139800227Y-65555659D01*
X139781940Y-65557019D01*
X139763527Y-65557475D01*
X139745114Y-65557019D01*
X139726826Y-65555659D01*
X139708694Y-65553406D01*
X139690747Y-65550275D01*
X139673016Y-65546278D01*
X139655532Y-65541426D01*
X139638325Y-65535734D01*
X139621426Y-65529212D01*
X139604864Y-65521875D01*
X139588671Y-65513734D01*
X139572877Y-65504802D01*
X139557512Y-65495091D01*
X139542607Y-65484615D01*
X139528192Y-65473386D01*
X139514297Y-65461416D01*
X139500954Y-65448718D01*
X139488256Y-65435375D01*
X139476286Y-65421481D01*
X139465057Y-65407065D01*
X139454581Y-65392160D01*
X139444870Y-65376795D01*
X139435938Y-65361001D01*
X139427797Y-65344808D01*
X139420460Y-65328246D01*
X139413939Y-65311347D01*
X139408246Y-65294140D01*
X139403394Y-65276656D01*
X139399397Y-65258925D01*
X139396266Y-65240978D01*
X139394014Y-65222846D01*
X139392653Y-65204558D01*
X139392197Y-65186145D01*
X139392653Y-65167732D01*
X139394014Y-65149444D01*
X139396266Y-65131312D01*
X139399398Y-65113365D01*
X139403396Y-65095634D01*
X139408248Y-65078150D01*
X139413942Y-65060943D01*
X139420464Y-65044044D01*
X139427802Y-65027482D01*
X139435944Y-65011289D01*
X139444876Y-64995495D01*
X139454587Y-64980130D01*
X139465064Y-64965225D01*
X139476293Y-64950810D01*
X139488263Y-64936915D01*
X139500961Y-64923572D01*
X139514305Y-64910874D01*
X139528199Y-64898904D01*
X139542614Y-64887675D01*
X139557518Y-64877199D01*
X139572883Y-64867488D01*
X139588676Y-64858556D01*
X139604869Y-64850415D01*
X139621430Y-64843078D01*
X139638328Y-64836557D01*
X139655535Y-64830864D01*
X139673018Y-64826012D01*
X139690748Y-64822015D01*
X139708695Y-64818884D01*
X139726827Y-64816632D01*
X139745114Y-64815271D01*
X139763527Y-64814815D01*
X139781940Y-64815271D01*
G37*
G36*
X147917783Y-72626717D02*
G01*
X147951311Y-72629212D01*
X147984554Y-72633341D01*
X148017457Y-72639082D01*
X148049963Y-72646412D01*
X148082016Y-72655307D01*
X148113562Y-72665745D01*
X148144544Y-72677701D01*
X148174906Y-72691154D01*
X148204593Y-72706080D01*
X148233548Y-72722456D01*
X148261716Y-72740258D01*
X148289042Y-72759465D01*
X148315468Y-72780052D01*
X148340940Y-72801996D01*
X148365402Y-72825275D01*
X148388681Y-72849737D01*
X148410625Y-72875209D01*
X148431212Y-72901636D01*
X148450419Y-72928961D01*
X148468221Y-72957129D01*
X148484597Y-72986085D01*
X148499523Y-73015771D01*
X148512976Y-73046133D01*
X148524933Y-73077115D01*
X148535370Y-73108661D01*
X148544265Y-73140715D01*
X148551595Y-73173221D01*
X148557336Y-73206123D01*
X148561465Y-73239366D01*
X148563960Y-73272894D01*
X148564797Y-73306651D01*
X148563960Y-73340409D01*
X148561465Y-73373937D01*
X148557336Y-73407180D01*
X148551595Y-73440082D01*
X148544265Y-73472588D01*
X148535370Y-73504642D01*
X148524933Y-73536188D01*
X148512976Y-73567169D01*
X148499523Y-73597532D01*
X148484597Y-73627218D01*
X148468221Y-73656174D01*
X148450419Y-73684342D01*
X148431212Y-73711667D01*
X148410625Y-73738094D01*
X148388681Y-73763566D01*
X148365402Y-73788028D01*
X148340940Y-73811307D01*
X148315468Y-73833251D01*
X148289042Y-73853838D01*
X148261716Y-73873044D01*
X148233548Y-73890847D01*
X148204593Y-73907223D01*
X148174906Y-73922149D01*
X148144544Y-73935602D01*
X148113562Y-73947558D01*
X148082016Y-73957996D01*
X148049963Y-73966891D01*
X148017457Y-73974221D01*
X147984554Y-73979962D01*
X147951311Y-73984091D01*
X147917783Y-73986586D01*
X147884026Y-73987422D01*
X147850269Y-73986586D01*
X147816741Y-73984091D01*
X147783497Y-73979962D01*
X147750595Y-73974221D01*
X147718089Y-73966891D01*
X147686035Y-73957996D01*
X147654489Y-73947558D01*
X147623508Y-73935602D01*
X147593146Y-73922149D01*
X147563459Y-73907223D01*
X147534504Y-73890847D01*
X147506335Y-73873044D01*
X147479010Y-73853838D01*
X147452583Y-73833251D01*
X147427111Y-73811307D01*
X147402649Y-73788028D01*
X147379370Y-73763566D01*
X147357426Y-73738094D01*
X147336839Y-73711667D01*
X147317633Y-73684342D01*
X147299830Y-73656174D01*
X147283454Y-73627218D01*
X147268528Y-73597532D01*
X147255076Y-73567169D01*
X147243119Y-73536188D01*
X147232681Y-73504642D01*
X147223786Y-73472588D01*
X147216457Y-73440082D01*
X147210715Y-73407180D01*
X147206586Y-73373937D01*
X147204092Y-73340409D01*
X147203255Y-73306651D01*
X147204092Y-73272894D01*
X147206586Y-73239366D01*
X147210715Y-73206123D01*
X147216457Y-73173221D01*
X147223786Y-73140715D01*
X147232681Y-73108661D01*
X147243119Y-73077115D01*
X147255076Y-73046133D01*
X147268528Y-73015771D01*
X147283454Y-72986085D01*
X147299830Y-72957129D01*
X147317633Y-72928961D01*
X147336839Y-72901636D01*
X147357426Y-72875209D01*
X147379370Y-72849737D01*
X147402649Y-72825275D01*
X147427111Y-72801996D01*
X147452583Y-72780052D01*
X147479010Y-72759465D01*
X147506335Y-72740258D01*
X147534504Y-72722456D01*
X147563459Y-72706080D01*
X147593146Y-72691154D01*
X147623508Y-72677701D01*
X147654489Y-72665745D01*
X147686035Y-72655307D01*
X147718089Y-72646412D01*
X147750595Y-72639082D01*
X147783497Y-72633341D01*
X147816741Y-72629212D01*
X147850269Y-72626717D01*
X147884026Y-72625881D01*
X147917783Y-72626717D01*
G37*
G36*
X148712298Y-69716247D02*
G01*
X148743727Y-69718637D01*
X148774700Y-69722573D01*
X148805176Y-69728016D01*
X148835118Y-69734926D01*
X148864486Y-69743266D01*
X148893242Y-69752996D01*
X148921346Y-69764077D01*
X148948760Y-69776471D01*
X148975445Y-69790138D01*
X149001362Y-69805040D01*
X149026472Y-69821138D01*
X149050736Y-69838392D01*
X149074116Y-69856765D01*
X149096572Y-69876217D01*
X149118065Y-69896709D01*
X149138557Y-69918202D01*
X149158009Y-69940658D01*
X149176382Y-69964037D01*
X149193636Y-69988302D01*
X149209734Y-70013412D01*
X149224636Y-70039328D01*
X149238303Y-70066013D01*
X149250697Y-70093427D01*
X149261778Y-70121532D01*
X149271508Y-70150288D01*
X149279848Y-70179656D01*
X149286758Y-70209598D01*
X149292201Y-70240074D01*
X149296137Y-70271046D01*
X149298527Y-70302476D01*
X149299332Y-70334323D01*
X149298527Y-70366171D01*
X149296137Y-70397600D01*
X149292201Y-70428572D01*
X149286758Y-70459049D01*
X149279848Y-70488991D01*
X149271508Y-70518359D01*
X149261778Y-70547115D01*
X149250697Y-70575219D01*
X149238303Y-70602633D01*
X149224636Y-70629318D01*
X149209734Y-70655235D01*
X149193636Y-70680345D01*
X149176382Y-70704609D01*
X149158009Y-70727988D01*
X149138557Y-70750444D01*
X149118065Y-70771938D01*
X149096572Y-70792430D01*
X149074116Y-70811881D01*
X149050736Y-70830254D01*
X149026472Y-70847509D01*
X149001362Y-70863607D01*
X148975445Y-70878508D01*
X148948760Y-70892176D01*
X148921346Y-70904569D01*
X148893242Y-70915651D01*
X148864486Y-70925381D01*
X148835118Y-70933720D01*
X148805176Y-70940631D01*
X148774700Y-70946073D01*
X148743727Y-70950009D01*
X148712298Y-70952399D01*
X148680451Y-70953204D01*
X148649762Y-70952444D01*
X148619281Y-70950176D01*
X148589060Y-70946423D01*
X148559148Y-70941204D01*
X148529596Y-70934542D01*
X148500456Y-70926456D01*
X148471778Y-70916968D01*
X148443612Y-70906100D01*
X148416010Y-70893871D01*
X148389022Y-70880302D01*
X148362698Y-70865416D01*
X148337090Y-70849232D01*
X148312249Y-70831773D01*
X148288224Y-70813057D01*
X148265067Y-70793108D01*
X148242829Y-70771945D01*
X148221666Y-70749707D01*
X148201716Y-70726550D01*
X148183001Y-70702525D01*
X148165540Y-70677684D01*
X148149356Y-70652076D01*
X148134469Y-70625752D01*
X148120900Y-70598764D01*
X148108670Y-70571162D01*
X148097801Y-70542996D01*
X148088312Y-70514318D01*
X148080226Y-70485177D01*
X148073563Y-70455626D01*
X148068344Y-70425714D01*
X148064590Y-70395493D01*
X148062322Y-70365012D01*
X148061562Y-70334323D01*
X148062322Y-70303634D01*
X148064590Y-70273154D01*
X148068344Y-70242933D01*
X148073563Y-70213022D01*
X148080226Y-70183471D01*
X148088312Y-70154331D01*
X148097801Y-70125654D01*
X148108670Y-70097489D01*
X148120900Y-70069887D01*
X148134469Y-70042899D01*
X148149356Y-70016577D01*
X148165540Y-69990969D01*
X148183001Y-69966128D01*
X148201716Y-69942104D01*
X148221666Y-69918947D01*
X148242829Y-69896709D01*
X148265067Y-69875546D01*
X148288224Y-69855596D01*
X148312249Y-69836881D01*
X148337090Y-69819421D01*
X148362698Y-69803236D01*
X148389022Y-69788349D01*
X148416010Y-69774780D01*
X148443612Y-69762551D01*
X148471778Y-69751681D01*
X148500456Y-69742193D01*
X148529596Y-69734106D01*
X148559148Y-69727443D01*
X148589060Y-69722224D01*
X148619281Y-69718470D01*
X148649762Y-69716203D01*
X148680451Y-69715442D01*
X148712298Y-69716247D01*
G37*
G36*
X136803960Y-70087102D02*
G01*
X136816531Y-70088058D01*
X136828919Y-70089632D01*
X136841109Y-70091809D01*
X136853086Y-70094573D01*
X136864832Y-70097909D01*
X136876334Y-70101801D01*
X136887575Y-70106234D01*
X136898541Y-70111191D01*
X136909214Y-70116658D01*
X136919581Y-70122619D01*
X136929624Y-70129058D01*
X136939329Y-70135959D01*
X136948681Y-70143308D01*
X136957663Y-70151089D01*
X136966260Y-70159286D01*
X136974457Y-70167883D01*
X136982237Y-70176865D01*
X136989586Y-70186217D01*
X136996488Y-70195923D01*
X137002927Y-70205967D01*
X137008887Y-70216333D01*
X137014354Y-70227007D01*
X137019311Y-70237973D01*
X137023744Y-70249214D01*
X137027636Y-70260717D01*
X137030972Y-70272464D01*
X137033736Y-70284441D01*
X137035913Y-70296631D01*
X137037487Y-70309020D01*
X137038443Y-70321592D01*
X137038765Y-70334331D01*
X137038773Y-70334323D01*
X137038450Y-70347061D01*
X137037493Y-70359633D01*
X137035919Y-70372021D01*
X137033741Y-70384211D01*
X137030977Y-70396187D01*
X137027641Y-70407934D01*
X137023748Y-70419436D01*
X137019316Y-70430677D01*
X137014358Y-70441642D01*
X137008891Y-70452316D01*
X137002931Y-70462682D01*
X136996492Y-70472726D01*
X136989590Y-70482431D01*
X136982241Y-70491782D01*
X136974461Y-70500764D01*
X136966264Y-70509362D01*
X136957667Y-70517558D01*
X136948685Y-70525339D01*
X136939333Y-70532687D01*
X136929628Y-70539589D01*
X136919584Y-70546028D01*
X136909218Y-70551989D01*
X136898544Y-70557456D01*
X136887579Y-70562413D01*
X136876337Y-70566845D01*
X136864835Y-70570737D01*
X136853088Y-70574073D01*
X136841112Y-70576837D01*
X136828921Y-70579014D01*
X136816532Y-70580588D01*
X136803961Y-70581544D01*
X136791222Y-70581867D01*
X136778484Y-70581544D01*
X136765912Y-70580588D01*
X136753524Y-70579014D01*
X136741334Y-70576837D01*
X136729358Y-70574073D01*
X136717611Y-70570737D01*
X136706109Y-70566845D01*
X136694868Y-70562413D01*
X136683903Y-70557455D01*
X136673229Y-70551989D01*
X136662863Y-70546028D01*
X136652819Y-70539589D01*
X136643114Y-70532687D01*
X136633763Y-70525338D01*
X136624781Y-70517557D01*
X136616183Y-70509361D01*
X136607987Y-70500763D01*
X136600206Y-70491781D01*
X136592858Y-70482429D01*
X136585956Y-70472724D01*
X136579517Y-70462680D01*
X136573556Y-70452313D01*
X136568089Y-70441639D01*
X136563132Y-70430674D01*
X136558700Y-70419432D01*
X136554808Y-70407930D01*
X136551472Y-70396182D01*
X136548708Y-70384206D01*
X136546531Y-70372015D01*
X136544957Y-70359626D01*
X136544001Y-70347055D01*
X136543678Y-70334316D01*
X136544001Y-70321578D01*
X136544956Y-70309008D01*
X136546531Y-70296620D01*
X136548707Y-70284430D01*
X136551471Y-70272455D01*
X136554807Y-70260709D01*
X136558699Y-70249207D01*
X136563131Y-70237966D01*
X136568088Y-70227002D01*
X136573555Y-70216328D01*
X136579515Y-70205962D01*
X136585954Y-70195919D01*
X136592855Y-70186214D01*
X136600204Y-70176863D01*
X136607984Y-70167881D01*
X136616181Y-70159284D01*
X136624778Y-70151088D01*
X136633759Y-70143307D01*
X136643111Y-70135958D01*
X136652816Y-70129057D01*
X136662860Y-70122618D01*
X136673226Y-70116657D01*
X136683900Y-70111191D01*
X136694865Y-70106233D01*
X136706106Y-70101801D01*
X136717608Y-70097909D01*
X136729355Y-70094573D01*
X136741332Y-70091809D01*
X136753522Y-70089632D01*
X136765911Y-70088058D01*
X136778483Y-70087102D01*
X136791222Y-70086780D01*
X136803960Y-70087102D01*
G37*
G36*
X142757324Y-63957025D02*
G01*
X142778661Y-63958613D01*
X142799817Y-63961241D01*
X142820756Y-63964894D01*
X142841442Y-63969559D01*
X142861840Y-63975220D01*
X142881915Y-63981862D01*
X142901631Y-63989472D01*
X142920952Y-63998033D01*
X142939843Y-64007532D01*
X142958269Y-64017953D01*
X142976194Y-64029282D01*
X142993582Y-64041505D01*
X143010399Y-64054606D01*
X143026609Y-64068571D01*
X143042175Y-64083385D01*
X143056989Y-64098952D01*
X143070954Y-64115161D01*
X143084055Y-64131978D01*
X143096278Y-64149366D01*
X143107607Y-64167291D01*
X143118028Y-64185717D01*
X143127527Y-64204608D01*
X143136089Y-64223929D01*
X143143698Y-64243644D01*
X143150340Y-64263718D01*
X143156001Y-64284116D01*
X143160666Y-64304801D01*
X143164319Y-64325739D01*
X143166947Y-64346894D01*
X143168535Y-64368230D01*
X143169068Y-64389713D01*
X143169060Y-64389720D01*
X143168529Y-64411204D01*
X143166942Y-64432542D01*
X143164315Y-64453698D01*
X143160663Y-64474637D01*
X143155999Y-64495324D01*
X143150338Y-64515723D01*
X143143696Y-64535798D01*
X143136088Y-64555515D01*
X143127527Y-64574837D01*
X143118028Y-64593728D01*
X143107607Y-64612155D01*
X143096278Y-64630081D01*
X143084055Y-64647470D01*
X143070954Y-64664287D01*
X143056989Y-64680497D01*
X143042175Y-64696063D01*
X143026609Y-64710877D01*
X143010399Y-64724842D01*
X142993582Y-64737942D01*
X142976193Y-64750164D01*
X142958267Y-64761493D01*
X142939841Y-64771914D01*
X142920949Y-64781412D01*
X142901628Y-64789973D01*
X142881912Y-64797581D01*
X142861837Y-64804223D01*
X142841439Y-64809883D01*
X142820753Y-64814547D01*
X142799814Y-64818200D01*
X142778659Y-64820828D01*
X142757322Y-64822415D01*
X142735840Y-64822948D01*
X142714356Y-64822415D01*
X142693019Y-64820828D01*
X142671863Y-64818200D01*
X142650924Y-64814546D01*
X142630238Y-64809881D01*
X142609840Y-64804220D01*
X142589765Y-64797578D01*
X142570049Y-64789969D01*
X142550728Y-64781407D01*
X142531837Y-64771909D01*
X142513411Y-64761487D01*
X142495486Y-64750158D01*
X142478098Y-64737935D01*
X142461281Y-64724834D01*
X142445071Y-64710870D01*
X142429505Y-64696056D01*
X142414691Y-64680489D01*
X142400726Y-64664279D01*
X142387625Y-64647463D01*
X142375402Y-64630074D01*
X142364073Y-64612149D01*
X142353652Y-64593724D01*
X142344153Y-64574833D01*
X142335591Y-64555512D01*
X142327982Y-64535797D01*
X142321340Y-64515722D01*
X142315679Y-64495325D01*
X142311014Y-64474639D01*
X142307361Y-64453701D01*
X142304733Y-64432547D01*
X142303145Y-64411210D01*
X142302612Y-64389728D01*
X142303145Y-64368243D01*
X142304733Y-64346904D01*
X142307361Y-64325747D01*
X142311014Y-64304806D01*
X142315679Y-64284119D01*
X142321340Y-64263719D01*
X142327982Y-64243644D01*
X142335591Y-64223927D01*
X142344153Y-64204605D01*
X142353652Y-64185712D01*
X142364073Y-64167286D01*
X142375402Y-64149360D01*
X142387625Y-64131971D01*
X142400726Y-64115154D01*
X142414691Y-64098944D01*
X142429505Y-64083377D01*
X142445071Y-64068563D01*
X142461281Y-64054599D01*
X142478098Y-64041498D01*
X142495487Y-64029276D01*
X142513413Y-64017947D01*
X142531839Y-64007527D01*
X142550731Y-63998029D01*
X142570052Y-63989468D01*
X142589768Y-63981859D01*
X142609843Y-63975218D01*
X142630241Y-63969557D01*
X142650927Y-63964893D01*
X142671866Y-63961240D01*
X142693021Y-63958612D01*
X142714358Y-63957025D01*
X142735840Y-63956493D01*
X142757324Y-63957025D01*
G37*
G36*
X145732697Y-64691644D02*
G01*
X145757083Y-64693459D01*
X145781261Y-64696462D01*
X145805190Y-64700638D01*
X145828832Y-64705969D01*
X145852144Y-64712439D01*
X145875087Y-64720030D01*
X145897619Y-64728727D01*
X145919701Y-64738511D01*
X145941291Y-64749367D01*
X145962350Y-64761277D01*
X145982836Y-64774225D01*
X146002709Y-64788193D01*
X146021928Y-64803166D01*
X146040453Y-64819125D01*
X146058243Y-64836055D01*
X146075173Y-64853845D01*
X146091132Y-64872370D01*
X146106105Y-64891589D01*
X146120073Y-64911462D01*
X146133021Y-64931948D01*
X146144931Y-64953006D01*
X146155787Y-64974596D01*
X146165571Y-64996678D01*
X146174268Y-65019210D01*
X146181859Y-65042152D01*
X146188329Y-65065464D01*
X146193660Y-65089104D01*
X146197836Y-65113033D01*
X146200839Y-65137210D01*
X146202654Y-65161594D01*
X146203262Y-65186145D01*
X146203255Y-65186145D01*
X146202648Y-65210696D01*
X146200834Y-65235080D01*
X146197832Y-65259258D01*
X146193657Y-65283187D01*
X146188327Y-65306828D01*
X146181857Y-65330141D01*
X146174266Y-65353084D01*
X146165570Y-65375616D01*
X146155786Y-65397698D01*
X146144931Y-65419289D01*
X146133021Y-65440348D01*
X146120073Y-65460834D01*
X146106105Y-65480708D01*
X146091132Y-65499927D01*
X146075173Y-65518452D01*
X146058243Y-65536243D01*
X146040453Y-65553172D01*
X146021927Y-65569132D01*
X146002708Y-65584104D01*
X145982835Y-65598072D01*
X145962348Y-65611019D01*
X145941289Y-65622929D01*
X145919699Y-65633784D01*
X145897617Y-65643567D01*
X145875084Y-65652263D01*
X145852141Y-65659854D01*
X145828829Y-65666323D01*
X145805187Y-65671654D01*
X145781258Y-65675829D01*
X145757080Y-65678832D01*
X145732696Y-65680646D01*
X145708145Y-65681255D01*
X145683594Y-65680646D01*
X145659210Y-65678832D01*
X145635033Y-65675828D01*
X145611103Y-65671652D01*
X145587462Y-65666321D01*
X145564150Y-65659851D01*
X145541207Y-65652260D01*
X145518674Y-65643564D01*
X145496592Y-65633779D01*
X145475001Y-65622923D01*
X145453942Y-65611013D01*
X145433456Y-65598065D01*
X145413583Y-65584097D01*
X145394363Y-65569124D01*
X145375838Y-65553165D01*
X145358048Y-65536235D01*
X145341118Y-65518445D01*
X145325159Y-65499920D01*
X145310187Y-65480700D01*
X145296219Y-65460827D01*
X145283271Y-65440340D01*
X145271362Y-65419282D01*
X145260507Y-65397691D01*
X145250723Y-65375609D01*
X145242027Y-65353076D01*
X145234437Y-65330133D01*
X145227967Y-65306821D01*
X145222637Y-65283179D01*
X145218462Y-65259250D01*
X145215458Y-65235073D01*
X145213644Y-65210688D01*
X145213036Y-65186137D01*
X145213644Y-65161588D01*
X145215459Y-65137205D01*
X145218462Y-65113029D01*
X145222638Y-65089101D01*
X145227969Y-65065461D01*
X145234439Y-65042150D01*
X145242030Y-65019208D01*
X145250727Y-64996677D01*
X145260511Y-64974596D01*
X145271367Y-64953006D01*
X145283277Y-64931948D01*
X145296225Y-64911462D01*
X145310193Y-64891589D01*
X145325166Y-64872370D01*
X145341125Y-64853845D01*
X145358055Y-64836055D01*
X145375846Y-64819125D01*
X145394370Y-64803166D01*
X145413590Y-64788193D01*
X145433462Y-64774225D01*
X145453948Y-64761277D01*
X145475006Y-64749367D01*
X145496597Y-64738511D01*
X145518678Y-64728727D01*
X145541210Y-64720030D01*
X145564152Y-64712439D01*
X145587464Y-64705969D01*
X145611105Y-64700638D01*
X145635034Y-64696462D01*
X145659210Y-64693459D01*
X145683595Y-64691644D01*
X145708145Y-64691036D01*
X145732697Y-64691644D01*
G37*
G36*
X147911639Y-66805718D02*
G01*
X147939072Y-66807759D01*
X147966271Y-66811138D01*
X147993193Y-66815834D01*
X148019789Y-66821831D01*
X148046016Y-66829108D01*
X148071826Y-66837647D01*
X148097176Y-66847430D01*
X148122018Y-66858436D01*
X148146307Y-66870647D01*
X148169998Y-66884045D01*
X148193045Y-66898610D01*
X148215402Y-66914323D01*
X148237024Y-66931166D01*
X148257864Y-66949120D01*
X148277878Y-66968166D01*
X148296924Y-66988179D01*
X148314878Y-67009020D01*
X148331721Y-67030642D01*
X148347435Y-67052999D01*
X148362001Y-67076045D01*
X148375399Y-67099736D01*
X148387611Y-67124026D01*
X148398618Y-67148868D01*
X148408401Y-67174217D01*
X148416941Y-67200028D01*
X148424219Y-67226254D01*
X148430216Y-67252851D01*
X148434913Y-67279772D01*
X148438292Y-67306972D01*
X148440333Y-67334405D01*
X148441017Y-67362026D01*
X148441025Y-67362026D01*
X148440339Y-67389646D01*
X148438297Y-67417079D01*
X148434917Y-67444278D01*
X148430219Y-67471199D01*
X148424221Y-67497795D01*
X148416942Y-67524021D01*
X148408402Y-67549831D01*
X148398619Y-67575179D01*
X148387612Y-67600021D01*
X148375399Y-67624310D01*
X148362001Y-67648000D01*
X148347435Y-67671046D01*
X148331721Y-67693403D01*
X148314878Y-67715024D01*
X148296924Y-67735864D01*
X148277878Y-67755878D01*
X148257864Y-67774923D01*
X148237024Y-67792877D01*
X148215403Y-67809721D01*
X148193046Y-67825435D01*
X148170000Y-67840000D01*
X148146310Y-67853399D01*
X148122021Y-67865611D01*
X148097180Y-67876618D01*
X148071831Y-67886401D01*
X148046021Y-67894940D01*
X148019795Y-67902218D01*
X147993199Y-67908215D01*
X147966278Y-67912913D01*
X147939079Y-67916291D01*
X147911646Y-67918333D01*
X147884026Y-67919017D01*
X147855363Y-67918292D01*
X147827077Y-67916141D01*
X147799202Y-67912599D01*
X147771773Y-67907701D01*
X147744825Y-67901482D01*
X147718394Y-67893976D01*
X147692514Y-67885219D01*
X147667220Y-67875246D01*
X147642547Y-67864092D01*
X147618531Y-67851791D01*
X147595206Y-67838379D01*
X147572607Y-67823892D01*
X147550769Y-67808362D01*
X147529728Y-67791827D01*
X147509517Y-67774321D01*
X147490173Y-67755878D01*
X147471731Y-67736534D01*
X147454224Y-67716324D01*
X147437689Y-67695282D01*
X147422160Y-67673444D01*
X147407672Y-67650846D01*
X147394260Y-67627520D01*
X147381960Y-67603504D01*
X147370805Y-67578831D01*
X147360832Y-67553538D01*
X147352075Y-67527658D01*
X147344570Y-67501226D01*
X147338350Y-67474279D01*
X147333452Y-67446850D01*
X147329910Y-67418975D01*
X147327759Y-67390688D01*
X147327034Y-67362026D01*
X147327759Y-67333363D01*
X147329910Y-67305077D01*
X147333452Y-67277201D01*
X147338350Y-67249773D01*
X147344569Y-67222825D01*
X147352075Y-67196394D01*
X147360831Y-67170513D01*
X147370804Y-67145220D01*
X147381958Y-67120547D01*
X147394258Y-67096531D01*
X147407670Y-67073205D01*
X147422157Y-67050607D01*
X147437686Y-67028769D01*
X147454221Y-67007727D01*
X147471727Y-66987517D01*
X147490170Y-66968173D01*
X147509513Y-66949731D01*
X147529723Y-66932224D01*
X147550764Y-66915689D01*
X147572602Y-66900160D01*
X147595200Y-66885672D01*
X147618525Y-66872260D01*
X147642541Y-66859960D01*
X147667213Y-66848805D01*
X147692507Y-66838832D01*
X147718387Y-66830075D01*
X147744818Y-66822570D01*
X147771765Y-66816350D01*
X147799194Y-66811452D01*
X147827069Y-66807910D01*
X147855355Y-66805759D01*
X147884018Y-66805034D01*
X147911639Y-66805718D01*
G37*
D11*
X146230000Y-59030000D02*
X141221040Y-59030000D01*
X143680000Y-54730000D01*
X146230000Y-59030000D01*
G36*
X146230000Y-59030000D02*
G01*
X141221040Y-59030000D01*
X143680000Y-54730000D01*
X146230000Y-59030000D01*
G37*
X143690828Y-54987156D02*
X141140828Y-50687156D01*
X146149788Y-50687156D01*
X143690828Y-54987156D01*
G36*
X143690828Y-54987156D02*
G01*
X141140828Y-50687156D01*
X146149788Y-50687156D01*
X143690828Y-54987156D01*
G37*
D10*
G36*
X151617194Y-54341232D02*
G01*
X151626623Y-54341949D01*
X151635916Y-54343129D01*
X151645059Y-54344762D01*
X151654042Y-54346835D01*
X151662853Y-54349337D01*
X151671480Y-54352256D01*
X151679912Y-54355580D01*
X151688136Y-54359298D01*
X151696142Y-54363398D01*
X151703917Y-54367869D01*
X151711450Y-54372698D01*
X151718730Y-54377874D01*
X151725744Y-54383386D01*
X151732480Y-54389221D01*
X151738928Y-54395369D01*
X151745076Y-54401816D01*
X151750912Y-54408553D01*
X151756423Y-54415567D01*
X151761600Y-54422846D01*
X151766429Y-54430379D01*
X151770900Y-54438154D01*
X151775000Y-54446159D01*
X151778718Y-54454383D01*
X151782042Y-54462814D01*
X151784961Y-54471441D01*
X151787463Y-54480251D01*
X151789536Y-54489234D01*
X151791169Y-54498377D01*
X151792349Y-54507668D01*
X151793066Y-54517097D01*
X151793308Y-54526651D01*
X151793066Y-54536206D01*
X151792350Y-54545634D01*
X151791169Y-54554926D01*
X151789536Y-54564069D01*
X151787463Y-54573051D01*
X151784962Y-54581862D01*
X151782043Y-54590488D01*
X151778719Y-54598920D01*
X151775001Y-54607144D01*
X151770902Y-54615149D01*
X151766431Y-54622924D01*
X151761603Y-54630457D01*
X151756427Y-54637736D01*
X151750915Y-54644750D01*
X151745080Y-54651486D01*
X151738933Y-54657934D01*
X151732486Y-54664082D01*
X151725749Y-54669917D01*
X151718736Y-54675429D01*
X151711457Y-54680605D01*
X151703925Y-54685434D01*
X151696150Y-54689905D01*
X151688145Y-54694005D01*
X151679921Y-54697723D01*
X151671490Y-54701047D01*
X151662864Y-54703966D01*
X151654054Y-54706468D01*
X151645072Y-54708541D01*
X151635929Y-54710174D01*
X151626637Y-54711354D01*
X151617208Y-54712071D01*
X151607654Y-54712313D01*
X151598099Y-54712071D01*
X151588670Y-54711354D01*
X151579378Y-54710174D01*
X151570234Y-54708541D01*
X151561251Y-54706468D01*
X151552440Y-54703966D01*
X151543813Y-54701047D01*
X151535382Y-54697723D01*
X151527157Y-54694005D01*
X151519151Y-54689905D01*
X151511376Y-54685434D01*
X151503843Y-54680605D01*
X151496564Y-54675429D01*
X151489550Y-54669917D01*
X151482813Y-54664082D01*
X151476365Y-54657934D01*
X151470217Y-54651486D01*
X151464382Y-54644750D01*
X151458870Y-54637736D01*
X151453693Y-54630457D01*
X151448864Y-54622924D01*
X151444394Y-54615149D01*
X151440294Y-54607144D01*
X151436575Y-54598920D01*
X151433251Y-54590488D01*
X151430332Y-54581862D01*
X151427830Y-54573051D01*
X151425757Y-54564069D01*
X151424125Y-54554926D01*
X151422944Y-54545634D01*
X151422227Y-54536206D01*
X151421985Y-54526651D01*
X151422227Y-54517097D01*
X151422944Y-54507668D01*
X151424124Y-54498377D01*
X151425757Y-54489234D01*
X151427830Y-54480251D01*
X151430331Y-54471441D01*
X151433250Y-54462814D01*
X151436574Y-54454383D01*
X151440292Y-54446159D01*
X151444392Y-54438154D01*
X151448862Y-54430379D01*
X151453691Y-54422846D01*
X151458867Y-54415567D01*
X151464378Y-54408553D01*
X151470213Y-54401816D01*
X151476360Y-54395369D01*
X151482808Y-54389221D01*
X151489544Y-54383386D01*
X151496557Y-54377874D01*
X151503836Y-54372698D01*
X151511368Y-54367869D01*
X151519143Y-54363398D01*
X151527148Y-54359298D01*
X151535372Y-54355580D01*
X151543803Y-54352256D01*
X151552429Y-54349337D01*
X151561239Y-54346835D01*
X151570222Y-54344762D01*
X151579365Y-54343129D01*
X151588656Y-54341949D01*
X151598085Y-54341232D01*
X151607639Y-54340990D01*
X151617194Y-54341232D01*
G37*
G36*
X151623570Y-48272988D02*
G01*
X151639285Y-48274183D01*
X151654771Y-48276150D01*
X151670009Y-48278872D01*
X151684980Y-48282327D01*
X151699664Y-48286497D01*
X151714042Y-48291362D01*
X151728095Y-48296902D01*
X151741802Y-48303099D01*
X151755144Y-48309933D01*
X151768102Y-48317384D01*
X151780657Y-48325433D01*
X151792790Y-48334060D01*
X151804479Y-48343246D01*
X151815707Y-48352972D01*
X151826454Y-48363218D01*
X151836700Y-48373965D01*
X151846426Y-48385193D01*
X151855612Y-48396883D01*
X151864239Y-48409015D01*
X151872288Y-48421570D01*
X151879739Y-48434528D01*
X151886573Y-48447871D01*
X151892770Y-48461578D01*
X151898310Y-48475630D01*
X151903175Y-48490008D01*
X151907345Y-48504692D01*
X151910800Y-48519663D01*
X151913522Y-48534901D01*
X151915490Y-48550387D01*
X151916685Y-48566102D01*
X151917087Y-48582026D01*
X151916685Y-48597949D01*
X151915490Y-48613664D01*
X151913522Y-48629150D01*
X151910800Y-48644388D01*
X151907345Y-48659359D01*
X151903175Y-48674043D01*
X151898310Y-48688421D01*
X151892770Y-48702473D01*
X151886573Y-48716180D01*
X151879739Y-48729523D01*
X151872288Y-48742481D01*
X151864239Y-48755036D01*
X151855612Y-48767168D01*
X151846426Y-48778858D01*
X151836700Y-48790086D01*
X151826454Y-48800833D01*
X151815707Y-48811079D01*
X151804479Y-48820805D01*
X151792790Y-48829991D01*
X151780657Y-48838618D01*
X151768102Y-48846667D01*
X151755144Y-48854118D01*
X151741802Y-48860952D01*
X151728095Y-48867149D01*
X151714042Y-48872689D01*
X151699664Y-48877554D01*
X151684980Y-48881724D01*
X151670009Y-48885179D01*
X151654771Y-48887901D01*
X151639285Y-48889869D01*
X151623570Y-48891064D01*
X151607647Y-48891466D01*
X151591723Y-48891064D01*
X151576008Y-48889869D01*
X151560522Y-48887901D01*
X151545284Y-48885179D01*
X151530313Y-48881724D01*
X151515629Y-48877554D01*
X151501251Y-48872689D01*
X151487199Y-48867149D01*
X151473492Y-48860952D01*
X151460149Y-48854118D01*
X151447191Y-48846667D01*
X151434636Y-48838618D01*
X151422504Y-48829991D01*
X151410814Y-48820805D01*
X151399586Y-48811079D01*
X151388839Y-48800833D01*
X151378593Y-48790086D01*
X151368868Y-48778858D01*
X151359681Y-48767168D01*
X151351054Y-48755036D01*
X151343005Y-48742481D01*
X151335554Y-48729523D01*
X151328720Y-48716180D01*
X151322524Y-48702473D01*
X151316983Y-48688421D01*
X151312118Y-48674043D01*
X151307948Y-48659359D01*
X151304493Y-48644388D01*
X151301772Y-48629150D01*
X151299804Y-48613664D01*
X151298609Y-48597949D01*
X151298206Y-48582026D01*
X151298609Y-48566102D01*
X151299804Y-48550387D01*
X151301772Y-48534901D01*
X151304493Y-48519663D01*
X151307948Y-48504692D01*
X151312118Y-48490008D01*
X151316983Y-48475630D01*
X151322524Y-48461578D01*
X151328720Y-48447871D01*
X151335554Y-48434528D01*
X151343005Y-48421570D01*
X151351054Y-48409015D01*
X151359681Y-48396883D01*
X151368868Y-48385193D01*
X151378593Y-48373965D01*
X151388839Y-48363218D01*
X151399586Y-48352972D01*
X151410814Y-48343246D01*
X151422504Y-48334060D01*
X151434636Y-48325433D01*
X151447191Y-48317384D01*
X151460149Y-48309933D01*
X151473492Y-48303099D01*
X151487199Y-48296902D01*
X151501251Y-48291362D01*
X151515629Y-48286497D01*
X151530313Y-48282327D01*
X151545284Y-48278872D01*
X151560522Y-48276150D01*
X151576008Y-48274183D01*
X151591723Y-48272988D01*
X151607647Y-48272585D01*
X151623570Y-48272988D01*
G37*
G36*
X153801940Y-46035271D02*
G01*
X153820228Y-46036632D01*
X153838360Y-46038884D01*
X153856307Y-46042015D01*
X153874038Y-46046012D01*
X153891522Y-46050864D01*
X153908729Y-46056557D01*
X153925628Y-46063078D01*
X153942190Y-46070415D01*
X153958383Y-46078556D01*
X153974177Y-46087488D01*
X153989542Y-46097199D01*
X154004447Y-46107675D01*
X154018862Y-46118904D01*
X154032757Y-46130874D01*
X154046100Y-46143572D01*
X154058798Y-46156915D01*
X154070768Y-46170810D01*
X154081997Y-46185225D01*
X154092473Y-46200130D01*
X154102184Y-46215495D01*
X154111116Y-46231289D01*
X154119257Y-46247482D01*
X154126594Y-46264044D01*
X154133116Y-46280943D01*
X154138808Y-46298150D01*
X154143660Y-46315634D01*
X154147657Y-46333365D01*
X154150788Y-46351312D01*
X154153041Y-46369444D01*
X154154401Y-46387732D01*
X154154857Y-46406145D01*
X154154401Y-46424558D01*
X154153040Y-46442846D01*
X154150788Y-46460978D01*
X154147656Y-46478925D01*
X154143658Y-46496656D01*
X154138806Y-46514140D01*
X154133113Y-46531347D01*
X154126590Y-46548246D01*
X154119252Y-46564808D01*
X154111111Y-46581001D01*
X154102178Y-46596795D01*
X154092467Y-46612160D01*
X154081990Y-46627065D01*
X154070761Y-46641481D01*
X154058791Y-46655375D01*
X154046093Y-46668718D01*
X154032749Y-46681416D01*
X154018855Y-46693386D01*
X154004440Y-46704615D01*
X153989536Y-46715091D01*
X153974171Y-46724802D01*
X153958378Y-46733734D01*
X153942185Y-46741875D01*
X153925625Y-46749212D01*
X153908726Y-46755734D01*
X153891520Y-46761426D01*
X153874036Y-46766278D01*
X153856306Y-46770275D01*
X153838360Y-46773406D01*
X153820227Y-46775659D01*
X153801940Y-46777019D01*
X153783527Y-46777475D01*
X153765114Y-46777019D01*
X153746826Y-46775659D01*
X153728694Y-46773406D01*
X153710747Y-46770275D01*
X153693016Y-46766278D01*
X153675532Y-46761426D01*
X153658325Y-46755734D01*
X153641426Y-46749212D01*
X153624864Y-46741875D01*
X153608671Y-46733734D01*
X153592877Y-46724802D01*
X153577512Y-46715091D01*
X153562607Y-46704615D01*
X153548192Y-46693386D01*
X153534297Y-46681416D01*
X153520954Y-46668718D01*
X153508256Y-46655375D01*
X153496286Y-46641481D01*
X153485057Y-46627065D01*
X153474581Y-46612160D01*
X153464870Y-46596795D01*
X153455938Y-46581001D01*
X153447797Y-46564808D01*
X153440460Y-46548246D01*
X153433939Y-46531347D01*
X153428246Y-46514140D01*
X153423394Y-46496656D01*
X153419397Y-46478925D01*
X153416266Y-46460978D01*
X153414014Y-46442846D01*
X153412653Y-46424558D01*
X153412197Y-46406145D01*
X153412653Y-46387732D01*
X153414014Y-46369444D01*
X153416266Y-46351312D01*
X153419398Y-46333365D01*
X153423396Y-46315634D01*
X153428248Y-46298150D01*
X153433942Y-46280943D01*
X153440464Y-46264044D01*
X153447802Y-46247482D01*
X153455944Y-46231289D01*
X153464876Y-46215495D01*
X153474587Y-46200130D01*
X153485064Y-46185225D01*
X153496293Y-46170810D01*
X153508263Y-46156915D01*
X153520961Y-46143572D01*
X153534305Y-46130874D01*
X153548199Y-46118904D01*
X153562614Y-46107675D01*
X153577518Y-46097199D01*
X153592883Y-46087488D01*
X153608676Y-46078556D01*
X153624869Y-46070415D01*
X153641430Y-46063078D01*
X153658328Y-46056557D01*
X153675535Y-46050864D01*
X153693018Y-46046012D01*
X153710748Y-46042015D01*
X153728695Y-46038884D01*
X153746827Y-46036632D01*
X153765114Y-46035271D01*
X153783527Y-46034815D01*
X153801940Y-46035271D01*
G37*
G36*
X161937783Y-53846717D02*
G01*
X161971311Y-53849212D01*
X162004554Y-53853341D01*
X162037457Y-53859082D01*
X162069963Y-53866412D01*
X162102016Y-53875307D01*
X162133562Y-53885745D01*
X162164544Y-53897701D01*
X162194906Y-53911154D01*
X162224593Y-53926080D01*
X162253548Y-53942456D01*
X162281716Y-53960258D01*
X162309042Y-53979465D01*
X162335468Y-54000052D01*
X162360940Y-54021996D01*
X162385402Y-54045275D01*
X162408681Y-54069737D01*
X162430625Y-54095209D01*
X162451212Y-54121636D01*
X162470419Y-54148961D01*
X162488221Y-54177129D01*
X162504597Y-54206085D01*
X162519523Y-54235771D01*
X162532976Y-54266133D01*
X162544933Y-54297115D01*
X162555370Y-54328661D01*
X162564265Y-54360715D01*
X162571595Y-54393221D01*
X162577336Y-54426123D01*
X162581465Y-54459366D01*
X162583960Y-54492894D01*
X162584797Y-54526651D01*
X162583960Y-54560409D01*
X162581465Y-54593937D01*
X162577336Y-54627180D01*
X162571595Y-54660082D01*
X162564265Y-54692588D01*
X162555370Y-54724642D01*
X162544933Y-54756188D01*
X162532976Y-54787169D01*
X162519523Y-54817532D01*
X162504597Y-54847218D01*
X162488221Y-54876174D01*
X162470419Y-54904342D01*
X162451212Y-54931667D01*
X162430625Y-54958094D01*
X162408681Y-54983566D01*
X162385402Y-55008028D01*
X162360940Y-55031307D01*
X162335468Y-55053251D01*
X162309042Y-55073838D01*
X162281716Y-55093044D01*
X162253548Y-55110847D01*
X162224593Y-55127223D01*
X162194906Y-55142149D01*
X162164544Y-55155602D01*
X162133562Y-55167558D01*
X162102016Y-55177996D01*
X162069963Y-55186891D01*
X162037457Y-55194221D01*
X162004554Y-55199962D01*
X161971311Y-55204091D01*
X161937783Y-55206586D01*
X161904026Y-55207422D01*
X161870269Y-55206586D01*
X161836741Y-55204091D01*
X161803497Y-55199962D01*
X161770595Y-55194221D01*
X161738089Y-55186891D01*
X161706035Y-55177996D01*
X161674489Y-55167558D01*
X161643508Y-55155602D01*
X161613146Y-55142149D01*
X161583459Y-55127223D01*
X161554504Y-55110847D01*
X161526335Y-55093044D01*
X161499010Y-55073838D01*
X161472583Y-55053251D01*
X161447111Y-55031307D01*
X161422649Y-55008028D01*
X161399370Y-54983566D01*
X161377426Y-54958094D01*
X161356839Y-54931667D01*
X161337633Y-54904342D01*
X161319830Y-54876174D01*
X161303454Y-54847218D01*
X161288528Y-54817532D01*
X161275076Y-54787169D01*
X161263119Y-54756188D01*
X161252681Y-54724642D01*
X161243786Y-54692588D01*
X161236457Y-54660082D01*
X161230715Y-54627180D01*
X161226586Y-54593937D01*
X161224092Y-54560409D01*
X161223255Y-54526651D01*
X161224092Y-54492894D01*
X161226586Y-54459366D01*
X161230715Y-54426123D01*
X161236457Y-54393221D01*
X161243786Y-54360715D01*
X161252681Y-54328661D01*
X161263119Y-54297115D01*
X161275076Y-54266133D01*
X161288528Y-54235771D01*
X161303454Y-54206085D01*
X161319830Y-54177129D01*
X161337633Y-54148961D01*
X161356839Y-54121636D01*
X161377426Y-54095209D01*
X161399370Y-54069737D01*
X161422649Y-54045275D01*
X161447111Y-54021996D01*
X161472583Y-54000052D01*
X161499010Y-53979465D01*
X161526335Y-53960258D01*
X161554504Y-53942456D01*
X161583459Y-53926080D01*
X161613146Y-53911154D01*
X161643508Y-53897701D01*
X161674489Y-53885745D01*
X161706035Y-53875307D01*
X161738089Y-53866412D01*
X161770595Y-53859082D01*
X161803497Y-53853341D01*
X161836741Y-53849212D01*
X161870269Y-53846717D01*
X161904026Y-53845881D01*
X161937783Y-53846717D01*
G37*
G36*
X162732298Y-50936247D02*
G01*
X162763727Y-50938637D01*
X162794700Y-50942573D01*
X162825176Y-50948016D01*
X162855118Y-50954926D01*
X162884486Y-50963266D01*
X162913242Y-50972996D01*
X162941346Y-50984077D01*
X162968760Y-50996471D01*
X162995445Y-51010138D01*
X163021362Y-51025040D01*
X163046472Y-51041138D01*
X163070736Y-51058392D01*
X163094116Y-51076765D01*
X163116572Y-51096217D01*
X163138065Y-51116709D01*
X163158557Y-51138202D01*
X163178009Y-51160658D01*
X163196382Y-51184037D01*
X163213636Y-51208302D01*
X163229734Y-51233412D01*
X163244636Y-51259328D01*
X163258303Y-51286013D01*
X163270697Y-51313427D01*
X163281778Y-51341532D01*
X163291508Y-51370288D01*
X163299848Y-51399656D01*
X163306758Y-51429598D01*
X163312201Y-51460074D01*
X163316137Y-51491046D01*
X163318527Y-51522476D01*
X163319332Y-51554323D01*
X163318527Y-51586171D01*
X163316137Y-51617600D01*
X163312201Y-51648572D01*
X163306758Y-51679049D01*
X163299848Y-51708991D01*
X163291508Y-51738359D01*
X163281778Y-51767115D01*
X163270697Y-51795219D01*
X163258303Y-51822633D01*
X163244636Y-51849318D01*
X163229734Y-51875235D01*
X163213636Y-51900345D01*
X163196382Y-51924609D01*
X163178009Y-51947988D01*
X163158557Y-51970444D01*
X163138065Y-51991938D01*
X163116572Y-52012430D01*
X163094116Y-52031881D01*
X163070736Y-52050254D01*
X163046472Y-52067509D01*
X163021362Y-52083607D01*
X162995445Y-52098508D01*
X162968760Y-52112176D01*
X162941346Y-52124569D01*
X162913242Y-52135651D01*
X162884486Y-52145381D01*
X162855118Y-52153720D01*
X162825176Y-52160631D01*
X162794700Y-52166073D01*
X162763727Y-52170009D01*
X162732298Y-52172399D01*
X162700451Y-52173204D01*
X162669762Y-52172444D01*
X162639281Y-52170176D01*
X162609060Y-52166423D01*
X162579148Y-52161204D01*
X162549596Y-52154542D01*
X162520456Y-52146456D01*
X162491778Y-52136968D01*
X162463612Y-52126100D01*
X162436010Y-52113871D01*
X162409022Y-52100302D01*
X162382698Y-52085416D01*
X162357090Y-52069232D01*
X162332249Y-52051773D01*
X162308224Y-52033057D01*
X162285067Y-52013108D01*
X162262829Y-51991945D01*
X162241666Y-51969707D01*
X162221716Y-51946550D01*
X162203001Y-51922525D01*
X162185540Y-51897684D01*
X162169356Y-51872076D01*
X162154469Y-51845752D01*
X162140900Y-51818764D01*
X162128670Y-51791162D01*
X162117801Y-51762996D01*
X162108312Y-51734318D01*
X162100226Y-51705177D01*
X162093563Y-51675626D01*
X162088344Y-51645714D01*
X162084590Y-51615493D01*
X162082322Y-51585012D01*
X162081562Y-51554323D01*
X162082322Y-51523634D01*
X162084590Y-51493154D01*
X162088344Y-51462933D01*
X162093563Y-51433022D01*
X162100226Y-51403471D01*
X162108312Y-51374331D01*
X162117801Y-51345654D01*
X162128670Y-51317489D01*
X162140900Y-51289887D01*
X162154469Y-51262899D01*
X162169356Y-51236577D01*
X162185540Y-51210969D01*
X162203001Y-51186128D01*
X162221716Y-51162104D01*
X162241666Y-51138947D01*
X162262829Y-51116709D01*
X162285067Y-51095546D01*
X162308224Y-51075596D01*
X162332249Y-51056881D01*
X162357090Y-51039421D01*
X162382698Y-51023236D01*
X162409022Y-51008349D01*
X162436010Y-50994780D01*
X162463612Y-50982551D01*
X162491778Y-50971681D01*
X162520456Y-50962193D01*
X162549596Y-50954106D01*
X162579148Y-50947443D01*
X162609060Y-50942224D01*
X162639281Y-50938470D01*
X162669762Y-50936203D01*
X162700451Y-50935442D01*
X162732298Y-50936247D01*
G37*
G36*
X150823960Y-51307102D02*
G01*
X150836531Y-51308058D01*
X150848919Y-51309632D01*
X150861109Y-51311809D01*
X150873086Y-51314573D01*
X150884832Y-51317909D01*
X150896334Y-51321801D01*
X150907575Y-51326234D01*
X150918541Y-51331191D01*
X150929214Y-51336658D01*
X150939581Y-51342619D01*
X150949624Y-51349058D01*
X150959329Y-51355959D01*
X150968681Y-51363308D01*
X150977663Y-51371089D01*
X150986260Y-51379286D01*
X150994457Y-51387883D01*
X151002237Y-51396865D01*
X151009586Y-51406217D01*
X151016488Y-51415923D01*
X151022927Y-51425967D01*
X151028887Y-51436333D01*
X151034354Y-51447007D01*
X151039311Y-51457973D01*
X151043744Y-51469214D01*
X151047636Y-51480717D01*
X151050972Y-51492464D01*
X151053736Y-51504441D01*
X151055913Y-51516631D01*
X151057487Y-51529020D01*
X151058443Y-51541592D01*
X151058765Y-51554331D01*
X151058773Y-51554323D01*
X151058450Y-51567061D01*
X151057493Y-51579633D01*
X151055919Y-51592021D01*
X151053741Y-51604211D01*
X151050977Y-51616187D01*
X151047641Y-51627934D01*
X151043748Y-51639436D01*
X151039316Y-51650677D01*
X151034358Y-51661642D01*
X151028891Y-51672316D01*
X151022931Y-51682682D01*
X151016492Y-51692726D01*
X151009590Y-51702431D01*
X151002241Y-51711782D01*
X150994461Y-51720764D01*
X150986264Y-51729362D01*
X150977667Y-51737558D01*
X150968685Y-51745339D01*
X150959333Y-51752687D01*
X150949628Y-51759589D01*
X150939584Y-51766028D01*
X150929218Y-51771989D01*
X150918544Y-51777456D01*
X150907579Y-51782413D01*
X150896337Y-51786845D01*
X150884835Y-51790737D01*
X150873088Y-51794073D01*
X150861112Y-51796837D01*
X150848921Y-51799014D01*
X150836532Y-51800588D01*
X150823961Y-51801544D01*
X150811222Y-51801867D01*
X150798484Y-51801544D01*
X150785912Y-51800588D01*
X150773524Y-51799014D01*
X150761334Y-51796837D01*
X150749358Y-51794073D01*
X150737611Y-51790737D01*
X150726109Y-51786845D01*
X150714868Y-51782413D01*
X150703903Y-51777455D01*
X150693229Y-51771989D01*
X150682863Y-51766028D01*
X150672819Y-51759589D01*
X150663114Y-51752687D01*
X150653763Y-51745338D01*
X150644781Y-51737557D01*
X150636183Y-51729361D01*
X150627987Y-51720763D01*
X150620206Y-51711781D01*
X150612858Y-51702429D01*
X150605956Y-51692724D01*
X150599517Y-51682680D01*
X150593556Y-51672313D01*
X150588089Y-51661639D01*
X150583132Y-51650674D01*
X150578700Y-51639432D01*
X150574808Y-51627930D01*
X150571472Y-51616182D01*
X150568708Y-51604206D01*
X150566531Y-51592015D01*
X150564957Y-51579626D01*
X150564001Y-51567055D01*
X150563678Y-51554316D01*
X150564001Y-51541578D01*
X150564956Y-51529008D01*
X150566531Y-51516620D01*
X150568707Y-51504430D01*
X150571471Y-51492455D01*
X150574807Y-51480709D01*
X150578699Y-51469207D01*
X150583131Y-51457966D01*
X150588088Y-51447002D01*
X150593555Y-51436328D01*
X150599515Y-51425962D01*
X150605954Y-51415919D01*
X150612855Y-51406214D01*
X150620204Y-51396863D01*
X150627984Y-51387881D01*
X150636181Y-51379284D01*
X150644778Y-51371088D01*
X150653759Y-51363307D01*
X150663111Y-51355958D01*
X150672816Y-51349057D01*
X150682860Y-51342618D01*
X150693226Y-51336657D01*
X150703900Y-51331191D01*
X150714865Y-51326233D01*
X150726106Y-51321801D01*
X150737608Y-51317909D01*
X150749355Y-51314573D01*
X150761332Y-51311809D01*
X150773522Y-51309632D01*
X150785911Y-51308058D01*
X150798483Y-51307102D01*
X150811222Y-51306780D01*
X150823960Y-51307102D01*
G37*
G36*
X156777324Y-45177025D02*
G01*
X156798661Y-45178613D01*
X156819817Y-45181241D01*
X156840756Y-45184894D01*
X156861442Y-45189559D01*
X156881840Y-45195220D01*
X156901915Y-45201862D01*
X156921631Y-45209472D01*
X156940952Y-45218033D01*
X156959843Y-45227532D01*
X156978269Y-45237953D01*
X156996194Y-45249282D01*
X157013582Y-45261505D01*
X157030399Y-45274606D01*
X157046609Y-45288571D01*
X157062175Y-45303385D01*
X157076989Y-45318952D01*
X157090954Y-45335161D01*
X157104055Y-45351978D01*
X157116278Y-45369366D01*
X157127607Y-45387291D01*
X157138028Y-45405717D01*
X157147527Y-45424608D01*
X157156089Y-45443929D01*
X157163698Y-45463644D01*
X157170340Y-45483718D01*
X157176001Y-45504116D01*
X157180666Y-45524801D01*
X157184319Y-45545739D01*
X157186947Y-45566894D01*
X157188535Y-45588230D01*
X157189068Y-45609713D01*
X157189060Y-45609720D01*
X157188529Y-45631204D01*
X157186942Y-45652542D01*
X157184315Y-45673698D01*
X157180663Y-45694637D01*
X157175999Y-45715324D01*
X157170338Y-45735723D01*
X157163696Y-45755798D01*
X157156088Y-45775515D01*
X157147527Y-45794837D01*
X157138028Y-45813728D01*
X157127607Y-45832155D01*
X157116278Y-45850081D01*
X157104055Y-45867470D01*
X157090954Y-45884287D01*
X157076989Y-45900497D01*
X157062175Y-45916063D01*
X157046609Y-45930877D01*
X157030399Y-45944842D01*
X157013582Y-45957942D01*
X156996193Y-45970164D01*
X156978267Y-45981493D01*
X156959841Y-45991914D01*
X156940949Y-46001412D01*
X156921628Y-46009973D01*
X156901912Y-46017581D01*
X156881837Y-46024223D01*
X156861439Y-46029883D01*
X156840753Y-46034547D01*
X156819814Y-46038200D01*
X156798659Y-46040828D01*
X156777322Y-46042415D01*
X156755840Y-46042948D01*
X156734356Y-46042415D01*
X156713019Y-46040828D01*
X156691863Y-46038200D01*
X156670924Y-46034546D01*
X156650238Y-46029881D01*
X156629840Y-46024220D01*
X156609765Y-46017578D01*
X156590049Y-46009969D01*
X156570728Y-46001407D01*
X156551837Y-45991909D01*
X156533411Y-45981487D01*
X156515486Y-45970158D01*
X156498098Y-45957935D01*
X156481281Y-45944834D01*
X156465071Y-45930870D01*
X156449505Y-45916056D01*
X156434691Y-45900489D01*
X156420726Y-45884279D01*
X156407625Y-45867463D01*
X156395402Y-45850074D01*
X156384073Y-45832149D01*
X156373652Y-45813724D01*
X156364153Y-45794833D01*
X156355591Y-45775512D01*
X156347982Y-45755797D01*
X156341340Y-45735722D01*
X156335679Y-45715325D01*
X156331014Y-45694639D01*
X156327361Y-45673701D01*
X156324733Y-45652547D01*
X156323145Y-45631210D01*
X156322612Y-45609728D01*
X156323145Y-45588243D01*
X156324733Y-45566904D01*
X156327361Y-45545747D01*
X156331014Y-45524806D01*
X156335679Y-45504119D01*
X156341340Y-45483719D01*
X156347982Y-45463644D01*
X156355591Y-45443927D01*
X156364153Y-45424605D01*
X156373652Y-45405712D01*
X156384073Y-45387286D01*
X156395402Y-45369360D01*
X156407625Y-45351971D01*
X156420726Y-45335154D01*
X156434691Y-45318944D01*
X156449505Y-45303377D01*
X156465071Y-45288563D01*
X156481281Y-45274599D01*
X156498098Y-45261498D01*
X156515487Y-45249276D01*
X156533413Y-45237947D01*
X156551839Y-45227527D01*
X156570731Y-45218029D01*
X156590052Y-45209468D01*
X156609768Y-45201859D01*
X156629843Y-45195218D01*
X156650241Y-45189557D01*
X156670927Y-45184893D01*
X156691866Y-45181240D01*
X156713021Y-45178612D01*
X156734358Y-45177025D01*
X156755840Y-45176493D01*
X156777324Y-45177025D01*
G37*
G36*
X159752697Y-45911644D02*
G01*
X159777083Y-45913459D01*
X159801261Y-45916462D01*
X159825190Y-45920638D01*
X159848832Y-45925969D01*
X159872144Y-45932439D01*
X159895087Y-45940030D01*
X159917619Y-45948727D01*
X159939701Y-45958511D01*
X159961291Y-45969367D01*
X159982350Y-45981277D01*
X160002836Y-45994225D01*
X160022709Y-46008193D01*
X160041928Y-46023166D01*
X160060453Y-46039125D01*
X160078243Y-46056055D01*
X160095173Y-46073845D01*
X160111132Y-46092370D01*
X160126105Y-46111589D01*
X160140073Y-46131462D01*
X160153021Y-46151948D01*
X160164931Y-46173006D01*
X160175787Y-46194596D01*
X160185571Y-46216678D01*
X160194268Y-46239210D01*
X160201859Y-46262152D01*
X160208329Y-46285464D01*
X160213660Y-46309104D01*
X160217836Y-46333033D01*
X160220839Y-46357210D01*
X160222654Y-46381594D01*
X160223262Y-46406145D01*
X160223255Y-46406145D01*
X160222648Y-46430696D01*
X160220834Y-46455080D01*
X160217832Y-46479258D01*
X160213657Y-46503187D01*
X160208327Y-46526828D01*
X160201857Y-46550141D01*
X160194266Y-46573084D01*
X160185570Y-46595616D01*
X160175786Y-46617698D01*
X160164931Y-46639289D01*
X160153021Y-46660348D01*
X160140073Y-46680834D01*
X160126105Y-46700708D01*
X160111132Y-46719927D01*
X160095173Y-46738452D01*
X160078243Y-46756243D01*
X160060453Y-46773172D01*
X160041927Y-46789132D01*
X160022708Y-46804104D01*
X160002835Y-46818072D01*
X159982348Y-46831019D01*
X159961289Y-46842929D01*
X159939699Y-46853784D01*
X159917617Y-46863567D01*
X159895084Y-46872263D01*
X159872141Y-46879854D01*
X159848829Y-46886323D01*
X159825187Y-46891654D01*
X159801258Y-46895829D01*
X159777080Y-46898832D01*
X159752696Y-46900646D01*
X159728145Y-46901255D01*
X159703594Y-46900646D01*
X159679210Y-46898832D01*
X159655033Y-46895828D01*
X159631103Y-46891652D01*
X159607462Y-46886321D01*
X159584150Y-46879851D01*
X159561207Y-46872260D01*
X159538674Y-46863564D01*
X159516592Y-46853779D01*
X159495001Y-46842923D01*
X159473942Y-46831013D01*
X159453456Y-46818065D01*
X159433583Y-46804097D01*
X159414363Y-46789124D01*
X159395838Y-46773165D01*
X159378048Y-46756235D01*
X159361118Y-46738445D01*
X159345159Y-46719920D01*
X159330187Y-46700700D01*
X159316219Y-46680827D01*
X159303271Y-46660340D01*
X159291362Y-46639282D01*
X159280507Y-46617691D01*
X159270723Y-46595609D01*
X159262027Y-46573076D01*
X159254437Y-46550133D01*
X159247967Y-46526821D01*
X159242637Y-46503179D01*
X159238462Y-46479250D01*
X159235458Y-46455073D01*
X159233644Y-46430688D01*
X159233036Y-46406137D01*
X159233644Y-46381588D01*
X159235459Y-46357205D01*
X159238462Y-46333029D01*
X159242638Y-46309101D01*
X159247969Y-46285461D01*
X159254439Y-46262150D01*
X159262030Y-46239208D01*
X159270727Y-46216677D01*
X159280511Y-46194596D01*
X159291367Y-46173006D01*
X159303277Y-46151948D01*
X159316225Y-46131462D01*
X159330193Y-46111589D01*
X159345166Y-46092370D01*
X159361125Y-46073845D01*
X159378055Y-46056055D01*
X159395846Y-46039125D01*
X159414370Y-46023166D01*
X159433590Y-46008193D01*
X159453462Y-45994225D01*
X159473948Y-45981277D01*
X159495006Y-45969367D01*
X159516597Y-45958511D01*
X159538678Y-45948727D01*
X159561210Y-45940030D01*
X159584152Y-45932439D01*
X159607464Y-45925969D01*
X159631105Y-45920638D01*
X159655034Y-45916462D01*
X159679210Y-45913459D01*
X159703595Y-45911644D01*
X159728145Y-45911036D01*
X159752697Y-45911644D01*
G37*
G36*
X161931639Y-48025718D02*
G01*
X161959072Y-48027759D01*
X161986271Y-48031138D01*
X162013193Y-48035834D01*
X162039789Y-48041831D01*
X162066016Y-48049108D01*
X162091826Y-48057647D01*
X162117176Y-48067430D01*
X162142018Y-48078436D01*
X162166307Y-48090647D01*
X162189998Y-48104045D01*
X162213045Y-48118610D01*
X162235402Y-48134323D01*
X162257024Y-48151166D01*
X162277864Y-48169120D01*
X162297878Y-48188166D01*
X162316924Y-48208179D01*
X162334878Y-48229020D01*
X162351721Y-48250642D01*
X162367435Y-48272999D01*
X162382001Y-48296045D01*
X162395399Y-48319736D01*
X162407611Y-48344026D01*
X162418618Y-48368868D01*
X162428401Y-48394217D01*
X162436941Y-48420028D01*
X162444219Y-48446254D01*
X162450216Y-48472851D01*
X162454913Y-48499772D01*
X162458292Y-48526972D01*
X162460333Y-48554405D01*
X162461017Y-48582026D01*
X162461025Y-48582026D01*
X162460339Y-48609646D01*
X162458297Y-48637079D01*
X162454917Y-48664278D01*
X162450219Y-48691199D01*
X162444221Y-48717795D01*
X162436942Y-48744021D01*
X162428402Y-48769831D01*
X162418619Y-48795179D01*
X162407612Y-48820021D01*
X162395399Y-48844310D01*
X162382001Y-48868000D01*
X162367435Y-48891046D01*
X162351721Y-48913403D01*
X162334878Y-48935024D01*
X162316924Y-48955864D01*
X162297878Y-48975878D01*
X162277864Y-48994923D01*
X162257024Y-49012877D01*
X162235403Y-49029721D01*
X162213046Y-49045435D01*
X162190000Y-49060000D01*
X162166310Y-49073399D01*
X162142021Y-49085611D01*
X162117180Y-49096618D01*
X162091831Y-49106401D01*
X162066021Y-49114940D01*
X162039795Y-49122218D01*
X162013199Y-49128215D01*
X161986278Y-49132913D01*
X161959079Y-49136291D01*
X161931646Y-49138333D01*
X161904026Y-49139017D01*
X161875363Y-49138292D01*
X161847077Y-49136141D01*
X161819202Y-49132599D01*
X161791773Y-49127701D01*
X161764825Y-49121482D01*
X161738394Y-49113976D01*
X161712514Y-49105219D01*
X161687220Y-49095246D01*
X161662547Y-49084092D01*
X161638531Y-49071791D01*
X161615206Y-49058379D01*
X161592607Y-49043892D01*
X161570769Y-49028362D01*
X161549728Y-49011827D01*
X161529517Y-48994321D01*
X161510173Y-48975878D01*
X161491731Y-48956534D01*
X161474224Y-48936324D01*
X161457689Y-48915282D01*
X161442160Y-48893444D01*
X161427672Y-48870846D01*
X161414260Y-48847520D01*
X161401960Y-48823504D01*
X161390805Y-48798831D01*
X161380832Y-48773538D01*
X161372075Y-48747658D01*
X161364570Y-48721226D01*
X161358350Y-48694279D01*
X161353452Y-48666850D01*
X161349910Y-48638975D01*
X161347759Y-48610688D01*
X161347034Y-48582026D01*
X161347759Y-48553363D01*
X161349910Y-48525077D01*
X161353452Y-48497201D01*
X161358350Y-48469773D01*
X161364569Y-48442825D01*
X161372075Y-48416394D01*
X161380831Y-48390513D01*
X161390804Y-48365220D01*
X161401958Y-48340547D01*
X161414258Y-48316531D01*
X161427670Y-48293205D01*
X161442157Y-48270607D01*
X161457686Y-48248769D01*
X161474221Y-48227727D01*
X161491727Y-48207517D01*
X161510170Y-48188173D01*
X161529513Y-48169731D01*
X161549723Y-48152224D01*
X161570764Y-48135689D01*
X161592602Y-48120160D01*
X161615200Y-48105672D01*
X161638525Y-48092260D01*
X161662541Y-48079960D01*
X161687213Y-48068805D01*
X161712507Y-48058832D01*
X161738387Y-48050075D01*
X161764818Y-48042570D01*
X161791765Y-48036350D01*
X161819194Y-48031452D01*
X161847069Y-48027910D01*
X161875355Y-48025759D01*
X161904018Y-48025034D01*
X161931639Y-48025718D01*
G37*
G36*
X144285695Y-137540404D02*
G01*
X142934009Y-136760000D01*
X144285695Y-135979605D01*
X144285695Y-137540404D01*
G37*
G36*
X145902566Y-139883085D02*
G01*
X144394954Y-140287046D01*
X144798913Y-138779433D01*
X145902566Y-139883085D01*
G37*
G36*
X145902568Y-133636923D02*
G01*
X144798917Y-134740576D01*
X144394956Y-133232962D01*
X145902568Y-133636923D01*
G37*
G36*
X147922002Y-141747999D02*
G01*
X147141601Y-140396322D01*
X148702401Y-140396322D01*
X147922002Y-141747999D01*
G37*
G36*
X148702399Y-133123686D02*
G01*
X147141599Y-133123686D01*
X147922000Y-131772002D01*
X148702399Y-133123686D01*
G37*
G36*
X151045086Y-134740561D02*
G01*
X149941434Y-133636908D01*
X151449047Y-133232947D01*
X151045086Y-134740561D01*
G37*
G36*
X151449047Y-140287054D02*
G01*
X149941434Y-139883100D01*
X151045086Y-138779440D01*
X151449047Y-140287054D01*
G37*
G36*
X152910000Y-136760000D02*
G01*
X151558316Y-137540404D01*
X151558316Y-135979605D01*
X152910000Y-136760000D01*
G37*
G36*
X155725695Y-122810404D02*
G01*
X154374009Y-122030000D01*
X155725695Y-121249605D01*
X155725695Y-122810404D01*
G37*
G36*
X157342566Y-125153085D02*
G01*
X155834954Y-125557046D01*
X156238913Y-124049433D01*
X157342566Y-125153085D01*
G37*
G36*
X157342568Y-118906923D02*
G01*
X156238917Y-120010576D01*
X155834956Y-118502962D01*
X157342568Y-118906923D01*
G37*
G36*
X159362002Y-127017999D02*
G01*
X158581601Y-125666322D01*
X160142401Y-125666322D01*
X159362002Y-127017999D01*
G37*
G36*
X160142399Y-118393686D02*
G01*
X158581599Y-118393686D01*
X159362000Y-117042002D01*
X160142399Y-118393686D01*
G37*
G36*
X162485086Y-120010561D02*
G01*
X161381434Y-118906908D01*
X162889047Y-118502947D01*
X162485086Y-120010561D01*
G37*
G36*
X162889047Y-125557054D02*
G01*
X161381434Y-125153100D01*
X162485086Y-124049440D01*
X162889047Y-125557054D01*
G37*
G36*
X164350000Y-122030000D02*
G01*
X162998316Y-122810404D01*
X162998316Y-121249605D01*
X164350000Y-122030000D01*
G37*
G36*
X132960737Y-105550001D02*
G01*
X131609053Y-106330404D01*
X131609053Y-104769605D01*
X132960737Y-105550001D01*
G37*
G36*
X133596334Y-109567319D02*
G01*
X132492681Y-108463666D01*
X134000295Y-108059713D01*
X133596334Y-109567319D01*
G37*
G36*
X134000295Y-103040304D02*
G01*
X132492681Y-102636342D01*
X133596334Y-101532682D01*
X134000295Y-103040304D01*
G37*
G36*
X136510008Y-102000738D02*
G01*
X135729612Y-100649045D01*
X137290411Y-100649045D01*
X136510008Y-102000738D01*
G37*
G36*
X137290403Y-110450956D02*
G01*
X135729605Y-110450956D01*
X136510000Y-109099264D01*
X137290403Y-110450956D01*
G37*
G36*
X140527319Y-102636327D02*
G01*
X139019705Y-103040288D01*
X139423666Y-101532674D01*
X140527319Y-102636327D01*
G37*
G36*
X140527327Y-108463659D02*
G01*
X139423673Y-109567312D01*
X139019712Y-108059698D01*
X140527327Y-108463659D01*
G37*
G36*
X141410948Y-106330404D02*
G01*
X140059264Y-105550001D01*
X141410948Y-104769605D01*
X141410948Y-106330404D01*
G37*
G36*
X121560000Y-105490000D02*
G01*
X120208316Y-106270403D01*
X120208316Y-104709604D01*
X121560000Y-105490000D01*
G37*
G36*
X122195597Y-109507318D02*
G01*
X121091944Y-108403665D01*
X122599558Y-107999712D01*
X122195597Y-109507318D01*
G37*
G36*
X122599558Y-102980303D02*
G01*
X121091944Y-102576341D01*
X122195597Y-101472681D01*
X122599558Y-102980303D01*
G37*
G36*
X125109271Y-101940737D02*
G01*
X124328875Y-100589044D01*
X125889674Y-100589044D01*
X125109271Y-101940737D01*
G37*
G36*
X125889666Y-110390955D02*
G01*
X124328868Y-110390955D01*
X125109263Y-109039263D01*
X125889666Y-110390955D01*
G37*
G36*
X129126582Y-102576326D02*
G01*
X127618968Y-102980287D01*
X128022929Y-101472673D01*
X129126582Y-102576326D01*
G37*
G36*
X129126590Y-108403658D02*
G01*
X128022936Y-109507311D01*
X127618975Y-107999697D01*
X129126590Y-108403658D01*
G37*
G36*
X130010211Y-106270403D02*
G01*
X128658527Y-105490000D01*
X130010211Y-104709604D01*
X130010211Y-106270403D01*
G37*
G36*
X121465695Y-122800404D02*
G01*
X120114009Y-122020000D01*
X121465695Y-121239605D01*
X121465695Y-122800404D01*
G37*
G36*
X123082566Y-125143085D02*
G01*
X121574954Y-125547046D01*
X121978913Y-124039433D01*
X123082566Y-125143085D01*
G37*
G36*
X123082568Y-118896923D02*
G01*
X121978917Y-120000576D01*
X121574956Y-118492962D01*
X123082568Y-118896923D01*
G37*
G36*
X125102002Y-127007999D02*
G01*
X124321601Y-125656322D01*
X125882401Y-125656322D01*
X125102002Y-127007999D01*
G37*
G36*
X125882399Y-118383686D02*
G01*
X124321599Y-118383686D01*
X125102000Y-117032002D01*
X125882399Y-118383686D01*
G37*
G36*
X128225086Y-120000561D02*
G01*
X127121434Y-118896908D01*
X128629047Y-118492947D01*
X128225086Y-120000561D01*
G37*
G36*
X128629047Y-125547054D02*
G01*
X127121434Y-125143100D01*
X128225086Y-124039440D01*
X128629047Y-125547054D01*
G37*
G36*
X130090000Y-122020000D02*
G01*
X128738316Y-122800404D01*
X128738316Y-121239605D01*
X130090000Y-122020000D01*
G37*
%TD*%
D12*
%TO.C,REF\u002A\u002A*%
X122020000Y-29030000D03*
X122020000Y-151530000D03*
X162360000Y-29030000D03*
X162360000Y-151530000D03*
%TD*%
M02*
